<?xml version="1.0" encoding="UTF-8" standalone="no"?>
<svg
   xmlns:dc="http://purl.org/dc/elements/1.1/"
   xmlns:cc="http://creativecommons.org/ns#"
   xmlns:rdf="http://www.w3.org/1999/02/22-rdf-syntax-ns#"
   xmlns:svg="http://www.w3.org/2000/svg"
   xmlns="http://www.w3.org/2000/svg"
   viewBox="0 0 673.96667 433.97733"
   height="433.97733"
   width="673.96667"
   xml:space="preserve"
   id="svg2"
   version="1.1"><metadata
     id="metadata8"><rdf:RDF><cc:Work
         rdf:about=""><dc:format>image/svg+xml</dc:format><dc:type
           rdf:resource="http://purl.org/dc/dcmitype/StillImage" /></cc:Work></rdf:RDF></metadata><defs
     id="defs6"><clipPath
       id="clipPath20"
       clipPathUnits="userSpaceOnUse"><path
         id="path18"
         d="M 0,325.483 H 505.475 V 0 H 0 Z" /></clipPath><linearGradient
       id="linearGradient104"
       spreadMethod="pad"
       gradientTransform="matrix(348.63477,0,0,-348.63477,78.419922,162.74219)"
       gradientUnits="userSpaceOnUse"
       y2="0"
       x2="1"
       y1="0"
       x1="0"><stop
         id="stop94"
         offset="0"
         style="stop-opacity:1;stop-color:#d89953" /><stop
         id="stop96"
         offset="0.218185"
         style="stop-opacity:1;stop-color:#fbe590" /><stop
         id="stop98"
         offset="0.47879"
         style="stop-opacity:1;stop-color:#d89953" /><stop
         id="stop100"
         offset="0.72728"
         style="stop-opacity:1;stop-color:#fbe590" /><stop
         id="stop102"
         offset="1"
         style="stop-opacity:1;stop-color:#d89953" /></linearGradient><clipPath
       id="clipPath114"
       clipPathUnits="userSpaceOnUse"><path
         id="path112"
         d="M 0,325.483 H 505.475 V 0 H 0 Z" /></clipPath><linearGradient
       id="linearGradient146"
       spreadMethod="pad"
       gradientTransform="matrix(8.5722656,0,0,-8.5722656,193.16797,134.10645)"
       gradientUnits="userSpaceOnUse"
       y2="0"
       x2="1"
       y1="0"
       x1="0"><stop
         id="stop136"
         offset="0"
         style="stop-opacity:1;stop-color:#d89953" /><stop
         id="stop138"
         offset="0.218185"
         style="stop-opacity:1;stop-color:#fbe590" /><stop
         id="stop140"
         offset="0.47879"
         style="stop-opacity:1;stop-color:#d89953" /><stop
         id="stop142"
         offset="0.72728"
         style="stop-opacity:1;stop-color:#fbe590" /><stop
         id="stop144"
         offset="1"
         style="stop-opacity:1;stop-color:#d89953" /></linearGradient><linearGradient
       id="linearGradient172"
       spreadMethod="pad"
       gradientTransform="matrix(5.7109375,0,0,-5.7109375,229.87891,132.33594)"
       gradientUnits="userSpaceOnUse"
       y2="0"
       x2="1"
       y1="0"
       x1="0"><stop
         id="stop162"
         offset="0"
         style="stop-opacity:1;stop-color:#d89953" /><stop
         id="stop164"
         offset="0.218185"
         style="stop-opacity:1;stop-color:#fbe590" /><stop
         id="stop166"
         offset="0.47879"
         style="stop-opacity:1;stop-color:#d89953" /><stop
         id="stop168"
         offset="0.72728"
         style="stop-opacity:1;stop-color:#fbe590" /><stop
         id="stop170"
         offset="1"
         style="stop-opacity:1;stop-color:#d89953" /></linearGradient><linearGradient
       id="linearGradient198"
       spreadMethod="pad"
       gradientTransform="matrix(3.8515625,0,0,-3.8515625,294.61523,133.45215)"
       gradientUnits="userSpaceOnUse"
       y2="0"
       x2="1"
       y1="0"
       x1="0"><stop
         id="stop188"
         offset="0"
         style="stop-opacity:1;stop-color:#d89953" /><stop
         id="stop190"
         offset="0.218185"
         style="stop-opacity:1;stop-color:#fbe590" /><stop
         id="stop192"
         offset="0.47879"
         style="stop-opacity:1;stop-color:#d89953" /><stop
         id="stop194"
         offset="0.72728"
         style="stop-opacity:1;stop-color:#fbe590" /><stop
         id="stop196"
         offset="1"
         style="stop-opacity:1;stop-color:#d89953" /></linearGradient><linearGradient
       id="linearGradient224"
       spreadMethod="pad"
       gradientTransform="matrix(5.7792969,0,0,-5.7792969,261.38086,133.47363)"
       gradientUnits="userSpaceOnUse"
       y2="0"
       x2="1"
       y1="0"
       x1="0"><stop
         id="stop214"
         offset="0"
         style="stop-opacity:1;stop-color:#d89953" /><stop
         id="stop216"
         offset="0.218185"
         style="stop-opacity:1;stop-color:#fbe590" /><stop
         id="stop218"
         offset="0.47879"
         style="stop-opacity:1;stop-color:#d89953" /><stop
         id="stop220"
         offset="0.72728"
         style="stop-opacity:1;stop-color:#fbe590" /><stop
         id="stop222"
         offset="1"
         style="stop-opacity:1;stop-color:#d89953" /></linearGradient><linearGradient
       id="linearGradient250"
       spreadMethod="pad"
       gradientTransform="matrix(6.421875,0,0,-6.421875,268.51172,134.77441)"
       gradientUnits="userSpaceOnUse"
       y2="0"
       x2="1"
       y1="0"
       x1="0"><stop
         id="stop240"
         offset="0"
         style="stop-opacity:1;stop-color:#d89953" /><stop
         id="stop242"
         offset="0.218185"
         style="stop-opacity:1;stop-color:#fbe590" /><stop
         id="stop244"
         offset="0.47879"
         style="stop-opacity:1;stop-color:#d89953" /><stop
         id="stop246"
         offset="0.72728"
         style="stop-opacity:1;stop-color:#fbe590" /><stop
         id="stop248"
         offset="1"
         style="stop-opacity:1;stop-color:#d89953" /></linearGradient><linearGradient
       id="linearGradient276"
       spreadMethod="pad"
       gradientTransform="matrix(6.0917969,0,0,-6.0917969,287.35547,133.44531)"
       gradientUnits="userSpaceOnUse"
       y2="0"
       x2="1"
       y1="0"
       x1="0"><stop
         id="stop266"
         offset="0"
         style="stop-opacity:1;stop-color:#d89953" /><stop
         id="stop268"
         offset="0.218185"
         style="stop-opacity:1;stop-color:#fbe590" /><stop
         id="stop270"
         offset="0.47879"
         style="stop-opacity:1;stop-color:#d89953" /><stop
         id="stop272"
         offset="0.72728"
         style="stop-opacity:1;stop-color:#fbe590" /><stop
         id="stop274"
         offset="1"
         style="stop-opacity:1;stop-color:#d89953" /></linearGradient><linearGradient
       id="linearGradient302"
       spreadMethod="pad"
       gradientTransform="matrix(1.734375,0,0,-1.734375,221.88672,137.92676)"
       gradientUnits="userSpaceOnUse"
       y2="0"
       x2="1"
       y1="0"
       x1="0"><stop
         id="stop292"
         offset="0"
         style="stop-opacity:1;stop-color:#d89953" /><stop
         id="stop294"
         offset="0.218185"
         style="stop-opacity:1;stop-color:#fbe590" /><stop
         id="stop296"
         offset="0.47879"
         style="stop-opacity:1;stop-color:#d89953" /><stop
         id="stop298"
         offset="0.72728"
         style="stop-opacity:1;stop-color:#fbe590" /><stop
         id="stop300"
         offset="1"
         style="stop-opacity:1;stop-color:#d89953" /></linearGradient><linearGradient
       id="linearGradient328"
       spreadMethod="pad"
       gradientTransform="matrix(6.0507812,0,0,-6.0507812,280.35156,134.83496)"
       gradientUnits="userSpaceOnUse"
       y2="0"
       x2="1"
       y1="0"
       x1="0"><stop
         id="stop318"
         offset="0"
         style="stop-opacity:1;stop-color:#d89953" /><stop
         id="stop320"
         offset="0.218185"
         style="stop-opacity:1;stop-color:#fbe590" /><stop
         id="stop322"
         offset="0.47879"
         style="stop-opacity:1;stop-color:#d89953" /><stop
         id="stop324"
         offset="0.72728"
         style="stop-opacity:1;stop-color:#fbe590" /><stop
         id="stop326"
         offset="1"
         style="stop-opacity:1;stop-color:#d89953" /></linearGradient><linearGradient
       id="linearGradient354"
       spreadMethod="pad"
       gradientTransform="matrix(1.6152344,0,0,-1.6152344,218.58594,134.8125)"
       gradientUnits="userSpaceOnUse"
       y2="0"
       x2="1"
       y1="0"
       x1="0"><stop
         id="stop344"
         offset="0"
         style="stop-opacity:1;stop-color:#d89953" /><stop
         id="stop346"
         offset="0.218185"
         style="stop-opacity:1;stop-color:#fbe590" /><stop
         id="stop348"
         offset="0.47879"
         style="stop-opacity:1;stop-color:#d89953" /><stop
         id="stop350"
         offset="0.72728"
         style="stop-opacity:1;stop-color:#fbe590" /><stop
         id="stop352"
         offset="1"
         style="stop-opacity:1;stop-color:#d89953" /></linearGradient><linearGradient
       id="linearGradient380"
       spreadMethod="pad"
       gradientTransform="matrix(4.0917969,0,0,-4.0917969,224.76953,134.41406)"
       gradientUnits="userSpaceOnUse"
       y2="0"
       x2="1"
       y1="0"
       x1="0"><stop
         id="stop370"
         offset="0"
         style="stop-opacity:1;stop-color:#d89953" /><stop
         id="stop372"
         offset="0.218185"
         style="stop-opacity:1;stop-color:#fbe590" /><stop
         id="stop374"
         offset="0.47879"
         style="stop-opacity:1;stop-color:#d89953" /><stop
         id="stop376"
         offset="0.72728"
         style="stop-opacity:1;stop-color:#fbe590" /><stop
         id="stop378"
         offset="1"
         style="stop-opacity:1;stop-color:#d89953" /></linearGradient><linearGradient
       id="linearGradient406"
       spreadMethod="pad"
       gradientTransform="matrix(6.4785156,0,0,-6.4785156,253.58008,133.44531)"
       gradientUnits="userSpaceOnUse"
       y2="0"
       x2="1"
       y1="0"
       x1="0"><stop
         id="stop396"
         offset="0"
         style="stop-opacity:1;stop-color:#d89953" /><stop
         id="stop398"
         offset="0.218185"
         style="stop-opacity:1;stop-color:#fbe590" /><stop
         id="stop400"
         offset="0.47879"
         style="stop-opacity:1;stop-color:#d89953" /><stop
         id="stop402"
         offset="0.72728"
         style="stop-opacity:1;stop-color:#fbe590" /><stop
         id="stop404"
         offset="1"
         style="stop-opacity:1;stop-color:#d89953" /></linearGradient><linearGradient
       id="linearGradient432"
       spreadMethod="pad"
       gradientTransform="matrix(5.8554687,0,0,-5.8554687,203.25977,133.35742)"
       gradientUnits="userSpaceOnUse"
       y2="0"
       x2="1"
       y1="0"
       x1="0"><stop
         id="stop422"
         offset="0"
         style="stop-opacity:1;stop-color:#d89953" /><stop
         id="stop424"
         offset="0.218185"
         style="stop-opacity:1;stop-color:#fbe590" /><stop
         id="stop426"
         offset="0.47879"
         style="stop-opacity:1;stop-color:#d89953" /><stop
         id="stop428"
         offset="0.72728"
         style="stop-opacity:1;stop-color:#fbe590" /><stop
         id="stop430"
         offset="1"
         style="stop-opacity:1;stop-color:#d89953" /></linearGradient><linearGradient
       id="linearGradient458"
       spreadMethod="pad"
       gradientTransform="matrix(6.7871094,0,0,-6.7871094,240.73633,134.8125)"
       gradientUnits="userSpaceOnUse"
       y2="0"
       x2="1"
       y1="0"
       x1="0"><stop
         id="stop448"
         offset="0"
         style="stop-opacity:1;stop-color:#d89953" /><stop
         id="stop450"
         offset="0.218185"
         style="stop-opacity:1;stop-color:#fbe590" /><stop
         id="stop452"
         offset="0.47879"
         style="stop-opacity:1;stop-color:#d89953" /><stop
         id="stop454"
         offset="0.72728"
         style="stop-opacity:1;stop-color:#fbe590" /><stop
         id="stop456"
         offset="1"
         style="stop-opacity:1;stop-color:#d89953" /></linearGradient><linearGradient
       id="linearGradient484"
       spreadMethod="pad"
       gradientTransform="matrix(1.6523437,0,0,-1.6523437,221.92383,133.37598)"
       gradientUnits="userSpaceOnUse"
       y2="0"
       x2="1"
       y1="0"
       x1="0"><stop
         id="stop474"
         offset="0"
         style="stop-opacity:1;stop-color:#d89953" /><stop
         id="stop476"
         offset="0.218185"
         style="stop-opacity:1;stop-color:#fbe590" /><stop
         id="stop478"
         offset="0.47879"
         style="stop-opacity:1;stop-color:#d89953" /><stop
         id="stop480"
         offset="0.72728"
         style="stop-opacity:1;stop-color:#fbe590" /><stop
         id="stop482"
         offset="1"
         style="stop-opacity:1;stop-color:#d89953" /></linearGradient><linearGradient
       id="linearGradient510"
       spreadMethod="pad"
       gradientTransform="matrix(6.4785156,0,0,-6.4785156,210.56836,133.44531)"
       gradientUnits="userSpaceOnUse"
       y2="0"
       x2="1"
       y1="0"
       x1="0"><stop
         id="stop500"
         offset="0"
         style="stop-opacity:1;stop-color:#d89953" /><stop
         id="stop502"
         offset="0.218185"
         style="stop-opacity:1;stop-color:#fbe590" /><stop
         id="stop504"
         offset="0.47879"
         style="stop-opacity:1;stop-color:#d89953" /><stop
         id="stop506"
         offset="0.72728"
         style="stop-opacity:1;stop-color:#fbe590" /><stop
         id="stop508"
         offset="1"
         style="stop-opacity:1;stop-color:#d89953" /></linearGradient><linearGradient
       id="linearGradient536"
       spreadMethod="pad"
       gradientTransform="matrix(3.8515625,0,0,-3.8515625,248.86914,133.45215)"
       gradientUnits="userSpaceOnUse"
       y2="0"
       x2="1"
       y1="0"
       x1="0"><stop
         id="stop526"
         offset="0"
         style="stop-opacity:1;stop-color:#d89953" /><stop
         id="stop528"
         offset="0.218185"
         style="stop-opacity:1;stop-color:#fbe590" /><stop
         id="stop530"
         offset="0.47879"
         style="stop-opacity:1;stop-color:#d89953" /><stop
         id="stop532"
         offset="0.72728"
         style="stop-opacity:1;stop-color:#fbe590" /><stop
         id="stop534"
         offset="1"
         style="stop-opacity:1;stop-color:#d89953" /></linearGradient></defs><g
     transform="matrix(1.3333333,0,0,-1.3333333,0,433.97733)"
     id="g10"><path
       id="path12"
       style="fill:#000000;fill-opacity:1;fill-rule:nonzero;stroke:none"
       d="M 0,0 H 505.474 V 325.483 H 0 Z" /><g
       id="g14"><g
         clip-path="url(#clipPath20)"
         id="g16"><g
           transform="translate(228.9824,173.2158)"
           id="g22"><path
             id="path24"
             style="fill:#e90e47;fill-opacity:1;fill-rule:nonzero;stroke:none"
             d="m 0,0 c -15.24,0 -23.463,10.535 -23.463,20.445 0,10.422 8.777,21.201 23.463,21.201 5.197,0 6.963,-0.275 12.404,-2.996 4.811,-2.406 9.737,-5.556 10.676,-6.164 l 0.117,-0.076 -0.129,-0.056 c -0.839,-0.368 -2.074,-0.938 -3.17,-1.559 l -0.039,-0.022 -0.039,0.024 c -2.23,1.389 -5.574,3.389 -8.834,5.019 C 5.859,38.381 4.582,38.477 0,38.477 c -12.703,0 -20.295,-9.168 -20.295,-18.032 0,-8.375 7.113,-17.277 20.295,-17.277 4.518,0 8.365,0.744 11.768,2.271 L 11.822,5.463 13.789,2.898 13.705,2.857 C 9.725,0.934 5.242,0 0,0" /></g><g
           transform="translate(262.7461,173.0283)"
           id="g26"><path
             id="path28"
             style="fill:#e90e47;fill-opacity:1;fill-rule:nonzero;stroke:none"
             d="m 0,0 c -11.941,0 -24.031,7.928 -24.031,23.086 0,3.303 0.135,6.176 0.398,8.543 l 0.014,0.121 0.101,-0.066 c 0.696,-0.446 1.756,-1.102 2.866,-1.684 l 0.045,-0.021 -0.004,-0.051 c -0.166,-1.996 -0.25,-4.297 -0.25,-6.842 0,-13.078 10.494,-19.918 20.861,-19.918 14.891,0 20.295,10.783 20.295,18.031 0,3.239 -1.115,11.266 -11.445,15.813 l -0.073,0.031 0.034,0.07 c 0.193,0.408 0.681,1.498 1.048,2.815 l 0.024,0.084 0.08,-0.035 C 22.148,34.709 23.463,25.09 23.463,21.199 23.463,10.664 15.404,0 0,0" /></g><g
           transform="translate(246.4902,195.9072)"
           id="g30"><path
             id="path32"
             style="fill:#e90e47;fill-opacity:1;fill-rule:nonzero;stroke:none"
             d="m 0,0 0.004,0.105 0.07,3.262 0.049,0.018 c 2.34,0.875 7.324,2.982 11.152,5.34 3.959,2.435 8.678,7.056 8.678,15.248 0,6.966 -7.906,17.088 -20.297,17.088 -6.849,0 -12.347,-1.95 -15.906,-5.637 -3.021,-3.133 -4.625,-7.5 -4.768,-12.981 l -0.002,-0.068 -0.066,-0.004 c -1.115,-0.092 -2.129,-0.203 -3.01,-0.334 l -0.088,-0.012 0.002,0.09 c 0.088,6.496 1.991,11.715 5.653,15.512 4.166,4.318 10.455,6.602 18.185,6.602 13.43,0 23.465,-10.696 23.465,-20.256 0,-7.532 -3.617,-13.907 -10.185,-17.95 C 9.227,3.742 3.305,1.084 0.102,0.033 Z" /></g><g
           transform="translate(251.0313,208.249)"
           id="g34"><path
             id="path36"
             style="fill:#e90e47;fill-opacity:1;fill-rule:nonzero;stroke:none"
             d="m 0,0 c -0.006,0.002 -0.459,0.305 -1.258,0.787 l 0.391,0.647 C -0.047,0.938 0.418,0.627 0.418,0.627 Z" /></g><g
           transform="translate(231.6387,215.9932)"
           id="g38"><path
             id="path40"
             style="fill:#e90e47;fill-opacity:1;fill-rule:nonzero;stroke:none"
             d="M 0,0 C -1.041,0.109 -2.029,0.125 -2.98,0.102 L -3,0.857 c 0.99,0.024 2.006,0.006 3.08,-0.107 z m -7.461,-0.297 -0.117,0.746 c 0.994,0.158 2.019,0.27 3.049,0.34 L -4.48,0.035 C -5.486,-0.031 -6.488,-0.143 -7.461,-0.297 M 4.41,-0.846 c -1.008,0.27 -1.992,0.489 -2.928,0.645 l 0.123,0.742 c 0.961,-0.158 1.971,-0.381 3,-0.66 z m -16.242,-0.468 -0.229,0.718 c 0.957,0.301 1.957,0.561 2.973,0.772 l 0.154,-0.74 c -0.992,-0.204 -1.966,-0.457 -2.898,-0.75 M 8.691,-2.268 c -0.972,0.377 -1.927,0.713 -2.839,1 l 0.226,0.721 C 7.006,-0.838 7.977,-1.18 8.965,-1.563 Z m -24.679,-0.73 -0.342,0.674 c 0.898,0.455 1.846,0.869 2.816,1.23 l 0.264,-0.707 c -0.943,-0.351 -1.865,-0.756 -2.738,-1.197 M 12.836,-4.08 c -0.922,0.447 -1.846,0.867 -2.748,1.248 l 0.293,0.695 c 0.914,-0.386 1.849,-0.81 2.783,-1.263 z m -32.625,-1.285 -0.455,0.601 c 0.808,0.614 1.67,1.186 2.562,1.705 l 0.379,-0.652 c -0.865,-0.504 -1.701,-1.06 -2.486,-1.654 M 16.84,-6.193 c -0.871,0.498 -1.764,0.982 -2.654,1.439 l 0.345,0.672 c 0.899,-0.463 1.803,-0.953 2.684,-1.457 z m -39.914,-2.202 -0.565,0.5 c 0.676,0.76 1.414,1.487 2.198,2.163 l 0.492,-0.573 c -0.756,-0.652 -1.473,-1.355 -2.125,-2.09 m -2.61,-3.621 -0.656,0.373 c 0.508,0.887 1.084,1.748 1.715,2.565 l 0.598,-0.463 c -0.612,-0.787 -1.168,-1.621 -1.657,-2.475 m -1.771,-4.093 -0.723,0.222 c 0.299,0.977 0.678,1.944 1.123,2.877 l 0.68,-0.328 c -0.43,-0.898 -0.793,-1.828 -1.08,-2.771 m -0.811,-4.377 -0.752,0.048 c 0.069,1.024 0.219,2.053 0.444,3.057 l 0.736,-0.166 c -0.217,-0.967 -0.361,-1.955 -0.428,-2.939 m -0.566,-4.567 c -0.143,1 -0.221,2.033 -0.229,3.073 l 0.754,0.005 c 0.008,-1.005 0.082,-2.004 0.223,-2.97 z m 1.131,-4.478 c -0.356,0.957 -0.645,1.953 -0.862,2.961 l 0.739,0.156 c 0.209,-0.971 0.488,-1.932 0.83,-2.856 z m 2.064,-4.137 c -0.558,0.871 -1.054,1.781 -1.476,2.711 l 0.685,0.311 c 0.408,-0.893 0.889,-1.774 1.426,-2.616 z m 2.881,-3.613 c -0.723,0.742 -1.396,1.531 -2.002,2.343 l 0.606,0.452 c 0.586,-0.787 1.236,-1.549 1.935,-2.268 z m 3.52,-2.985 c -0.844,0.594 -1.655,1.239 -2.409,1.918 l 0.506,0.561 c 0.731,-0.66 1.516,-1.285 2.336,-1.859 z m 3.984,-2.314 c -0.928,0.439 -1.838,0.934 -2.701,1.469 l 0.396,0.64 c 0.842,-0.519 1.725,-1 2.629,-1.427 z m 4.313,-1.629 c -0.989,0.287 -1.965,0.625 -2.905,1.008 l 0.285,0.699 c 0.914,-0.375 1.868,-0.703 2.829,-0.982 z m 15.205,-0.426 -0.151,0.739 c 1.016,0.208 1.99,0.462 2.893,0.755 l 0.234,-0.716 C 6.311,-44.158 5.311,-44.42 4.266,-44.635 m -10.69,-0.498 c -1.014,0.123 -2.031,0.303 -3.027,0.535 l 0.17,0.735 c 0.97,-0.225 1.963,-0.401 2.949,-0.522 z m 6.133,-0.115 -0.053,0.75 c 1.012,0.072 2.016,0.184 2.985,0.336 l 0.115,-0.746 c -0.988,-0.155 -2.014,-0.27 -3.047,-0.34 m -2.742,-0.096 c -0.619,0 -1.238,0.022 -1.858,0.063 l 0.049,0.754 c 1.012,-0.067 2.037,-0.073 2.998,-0.043 l 0.022,-0.756 c -0.393,-0.012 -0.797,-0.018 -1.211,-0.018" /></g><g
           transform="translate(240.4004,172.6846)"
           id="g42"><path
             id="path44"
             style="fill:#e90e47;fill-opacity:1;fill-rule:nonzero;stroke:none"
             d="m 0,0 -0.283,0.701 c 0.859,0.348 1.308,0.608 1.312,0.61 L 1.41,0.658 C 1.391,0.646 0.916,0.371 0,0" /></g><g
           transform="translate(276.9512,212.5088)"
           id="g46"><path
             id="path48"
             style="fill:#e90e47;fill-opacity:1;fill-rule:nonzero;stroke:none"
             d="m 0,0 c -0.736,0.537 -1.195,0.822 -1.201,0.824 l 0.398,0.643 c 0,0 0.477,-0.297 1.248,-0.858 z m 3.449,-2.867 c -0.722,0.679 -1.482,1.34 -2.26,1.959 l 0.471,0.59 c 0.793,-0.633 1.57,-1.305 2.307,-2 z M 6.49,-6.15 c -0.601,0.754 -1.267,1.505 -1.976,2.234 l 0.541,0.527 C 5.781,-4.135 6.463,-4.906 7.08,-5.68 Z m 2.473,-3.707 c -0.451,0.841 -0.981,1.691 -1.572,2.519 l 0.613,0.44 C 8.615,-7.756 9.162,-8.629 9.627,-9.5 Z m -48.725,-2.393 -0.754,0.008 c 0.022,1.814 0.092,3.025 0.094,3.037 l 0.752,-0.045 c 0,-0.012 -0.07,-1.207 -0.092,-3 m 50.352,-1.721 c -0.236,0.924 -0.565,1.862 -0.977,2.783 l 0.692,0.307 c 0.427,-0.961 0.769,-1.935 1.015,-2.902 z m -51.045,-2.818 c -0.043,1.074 -0.063,2.1 -0.066,3.031 l 0.753,0.004 c 0.004,-0.924 0.024,-1.939 0.067,-3.004 z m 52.271,-1.578 -0.753,0.017 c 0.003,0.211 0.005,0.42 0.005,0.635 0,0.76 -0.06,1.535 -0.181,2.305 l 0.746,0.113 c 0.127,-0.803 0.191,-1.621 0.191,-2.418 0,-0.221 -0.002,-0.435 -0.008,-0.652 m -51.921,-2.967 c -0.114,0.947 -0.204,1.969 -0.27,3.029 l 0.752,0.047 c 0.066,-1.047 0.156,-2.051 0.266,-2.988 z m 51.4,-1.592 -0.738,0.158 c 0.199,0.948 0.343,1.936 0.427,2.934 l 0.752,-0.062 c -0.086,-1.032 -0.234,-2.051 -0.441,-3.03 m -50.574,-2.914 c -0.241,0.883 -0.45,1.891 -0.621,2.996 l 0.746,0.117 c 0.168,-1.078 0.369,-2.06 0.603,-2.914 z m 49.174,-1.459 -0.692,0.303 c 0.393,0.896 0.731,1.834 1,2.789 l 0.725,-0.205 C 10.65,-25.4 10.301,-26.371 9.895,-27.299 m -47.293,-2.765 c -0.436,0.675 -0.809,1.349 -1.106,2.007 -0.107,0.239 -0.209,0.489 -0.307,0.746 l 0.707,0.264 c 0.09,-0.242 0.186,-0.476 0.288,-0.697 0.281,-0.625 0.634,-1.266 1.052,-1.906 z M 7.611,-31.287 7,-30.844 c 0.578,0.797 1.104,1.643 1.563,2.516 l 0.666,-0.354 c -0.475,-0.9 -1.02,-1.777 -1.618,-2.605 m -42.08,-2.326 c -0.748,0.74 -1.433,1.511 -2.037,2.293 l 0.598,0.463 c 0.584,-0.756 1.246,-1.502 1.97,-2.215 z m 39.022,-1.1 -0.51,0.559 c 0.732,0.67 1.422,1.39 2.049,2.138 L 6.67,-32.498 C 6.021,-33.273 5.309,-34.02 4.553,-34.713 m -35.485,-1.818 c -0.845,0.586 -1.658,1.215 -2.414,1.879 l 0.496,0.564 c 0.737,-0.642 1.526,-1.254 2.348,-1.822 z m 31.821,-0.942 -0.397,0.641 c 0.85,0.525 1.666,1.103 2.424,1.713 l 0.475,-0.588 c -0.784,-0.629 -1.625,-1.225 -2.502,-1.766 m -27.85,-1.351 c -0.92,0.437 -1.824,0.926 -2.687,1.457 l 0.394,0.642 c 0.84,-0.515 1.721,-0.992 2.617,-1.42 z m 23.758,-0.717 -0.285,0.697 c 0.925,0.375 1.83,0.799 2.691,1.266 l 0.361,-0.664 c -0.888,-0.479 -1.818,-0.918 -2.767,-1.299 m -19.481,-0.918 c -0.972,0.285 -1.941,0.629 -2.88,1.014 l 0.287,0.699 c 0.914,-0.377 1.859,-0.711 2.808,-0.99 z m 15.108,-0.457 -0.17,0.734 c 0.967,0.225 1.932,0.498 2.863,0.817 l 0.246,-0.713 c -0.959,-0.328 -1.947,-0.61 -2.939,-0.838 m -10.625,-0.494 c -1.008,0.135 -2.02,0.322 -3.004,0.556 l 0.176,0.735 c 0.959,-0.231 1.945,-0.412 2.925,-0.541 z m 6.094,-0.186 -0.053,0.754 c 0.982,0.071 1.976,0.194 2.955,0.365 l 0.131,-0.742 c -1.004,-0.177 -2.024,-0.304 -3.033,-0.377 m -2.125,-0.074 c -0.815,0 -1.639,0.031 -2.45,0.1 l 0.061,0.752 c 0.791,-0.065 1.596,-0.098 2.391,-0.098 0.179,0 0.388,0.004 0.584,0.006 l 0.013,-0.754 c -0.199,-0.002 -0.39,-0.008 -0.599,-0.006" /></g><g
           transform="translate(247.1582,241.5029)"
           id="g50"><path
             id="path52"
             style="fill:#e90e47;fill-opacity:1;fill-rule:nonzero;stroke:none"
             d="m 0,0 c -0.977,0.061 -1.98,0.084 -2.984,0.061 l -0.018,0.755 c 1.018,0.024 2.053,0.002 3.049,-0.062 z m -7.441,-0.332 -0.116,0.746 c 0.989,0.154 2.008,0.266 3.032,0.334 l 0.05,-0.752 c -1.002,-0.066 -2,-0.176 -2.966,-0.328 m 11.877,-0.25 c -0.965,0.195 -1.956,0.35 -2.95,0.455 L 1.568,0.625 C 2.584,0.514 3.598,0.357 4.584,0.158 Z m -16.227,-0.756 -0.23,0.719 0.339,0.105 c 0.844,0.254 1.727,0.475 2.621,0.659 l 0.151,-0.741 c -0.873,-0.179 -1.733,-0.394 -2.555,-0.64 z M 8.736,-1.783 C 7.822,-1.449 6.865,-1.156 5.889,-0.91 l 0.185,0.73 c 1,-0.252 1.983,-0.552 2.92,-0.892 z m -24.58,-1.354 -0.381,0.655 c 0.887,0.513 1.815,0.968 2.76,1.343 l 0.279,-0.697 c -0.91,-0.365 -1.804,-0.803 -2.658,-1.301 m 28.631,-0.509 c -0.846,0.482 -1.742,0.925 -2.664,1.318 l 0.295,0.693 c 0.947,-0.402 1.871,-0.859 2.742,-1.353 z m -32.201,-2.125 -0.51,0.556 c 0.76,0.697 1.567,1.34 2.403,1.91 l 0.425,-0.623 C -17.9,-4.48 -18.682,-5.1 -19.414,-5.771 m 35.848,-0.422 c -0.745,0.634 -1.545,1.232 -2.379,1.775 l 0.414,0.633 c 0.859,-0.563 1.685,-1.178 2.453,-1.832 z m -38.809,-2.893 -0.609,0.447 c 0.609,0.832 1.269,1.621 1.964,2.35 l 0.547,-0.52 c -0.672,-0.705 -1.312,-1.47 -1.902,-2.277 m 41.889,-0.31 c -0.143,0.183 -0.291,0.363 -0.444,0.546 -0.48,0.575 -0.998,1.131 -1.539,1.659 l 0.526,0.541 c 0.558,-0.543 1.095,-1.121 1.591,-1.717 0.159,-0.186 0.311,-0.375 0.459,-0.563 z m -44.19,-3.504 -0.678,0.332 c 0.456,0.927 0.959,1.822 1.502,2.668 l 0.635,-0.409 c -0.527,-0.82 -1.017,-1.693 -1.459,-2.591 m 46.578,-0.241 c -0.433,0.868 -0.941,1.727 -1.507,2.551 l 0.621,0.426 c 0.586,-0.852 1.111,-1.74 1.56,-2.641 z m -48.197,-3.916 -0.723,0.217 c 0.291,0.979 0.639,1.947 1.032,2.879 l 0.695,-0.295 c -0.383,-0.904 -0.719,-1.848 -1.004,-2.801 m 49.731,-0.244 c -0.235,0.953 -0.545,1.899 -0.92,2.813 l 0.697,0.285 c 0.391,-0.947 0.713,-1.93 0.955,-2.916 z m -50.661,-4.119 -0.748,0.098 c 0.131,1.002 0.317,2.013 0.557,3.006 l 0.734,-0.178 c -0.234,-0.965 -0.416,-1.951 -0.543,-2.926 m 51.229,-0.275 c -0.018,0.988 -0.108,1.978 -0.27,2.945 l 0.745,0.125 c 0.167,-1.004 0.261,-2.031 0.279,-3.057 z m 0.342,-4.569 -0.739,0.149 c 0.192,0.972 0.315,1.959 0.37,2.937 l 0.753,-0.039 c -0.056,-1.013 -0.185,-2.037 -0.384,-3.047 m -1.334,-4.392 -0.698,0.289 c 0.381,0.914 0.702,1.859 0.956,2.808 L 24,-27.756 c -0.264,-0.978 -0.598,-1.955 -0.988,-2.9 m -2.174,-4.045 -0.625,0.422 c 0.545,0.808 1.047,1.672 1.488,2.562 l 0.676,-0.334 c -0.457,-0.922 -0.975,-1.814 -1.539,-2.65 m -3.022,-3.479 -0.505,0.559 c 0.785,0.713 1.468,1.435 2.029,2.144 l 0.594,-0.466 c -0.588,-0.743 -1.299,-1.496 -2.118,-2.237 m -3.63,-2.797 -0.42,0.629 c 0.871,0.578 1.681,1.172 2.414,1.762 l 0.472,-0.59 c -0.75,-0.601 -1.578,-1.207 -2.466,-1.801 m -3.922,-2.339 -0.358,0.666 c 0.912,0.49 1.787,0.992 2.6,1.494 l 0.396,-0.641 c -0.826,-0.51 -1.714,-1.021 -2.638,-1.519 m -4.09,-2.014 -0.311,0.687 c 0.924,0.416 1.836,0.854 2.713,1.295 l 0.34,-0.672 c -0.887,-0.449 -1.809,-0.888 -2.742,-1.31 m -4.231,-1.736 -0.252,0.712 c 0.012,0.004 1.125,0.399 2.795,1.11 l 0.295,-0.697 c -1.693,-0.717 -2.826,-1.12 -2.838,-1.125" /></g><g
           transform="translate(193.1465,180.0186)"
           id="g54"><path
             id="path56"
             style="fill:#e90e47;fill-opacity:1;fill-rule:nonzero;stroke:none"
             d="M 0,0 -80.98,0.754 0,1.508 C 0.416,1.514 0.756,1.178 0.762,0.76 0.766,0.344 0.43,0.004 0.014,0 Z" /></g><g
           transform="translate(197.1699,173.7314)"
           id="g58"><path
             id="path60"
             style="fill:#e90e47;fill-opacity:1;fill-rule:nonzero;stroke:none"
             d="M 0,0 -89.027,0.754 0,1.508 C 0.418,1.51 0.758,1.176 0.762,0.76 0.766,0.344 0.43,0.002 0.012,0 Z" /></g><g
           transform="translate(257.3633,112.7139)"
           id="g62"><path
             id="path64"
             style="fill:#e90e47;fill-opacity:1;fill-rule:nonzero;stroke:none"
             d="M 0,0 -0.672,0.764 C 4.023,4.311 7.67,6.604 9.734,7.809 7.293,5.238 4.533,3.232 0,0 m -3.859,-1.229 c -9.307,-7.416 -28.922,-23.638 -28.922,-23.638 0,0 11.191,8.551 23.388,17.603 12.198,9.053 16.6,11.319 20.875,16.473 0,0 -6.037,-3.018 -15.341,-10.438" /></g><g
           transform="translate(264.8203,104.7275)"
           id="g66"><path
             id="path68"
             style="fill:#e90e47;fill-opacity:1;fill-rule:nonzero;stroke:none"
             d="m 0,0 c 0,-0.936 -0.76,-1.697 -1.697,-1.697 -0.938,0 -1.698,0.761 -1.698,1.697 0,0.939 0.76,1.699 1.698,1.699 C -0.76,1.699 0,0.939 0,0" /></g><g
           transform="translate(226.8145,104.7275)"
           id="g70"><path
             id="path72"
             style="fill:#e90e47;fill-opacity:1;fill-rule:nonzero;stroke:none"
             d="m 0,0 c 0,-0.936 0.76,-1.697 1.697,-1.697 0.938,0 1.698,0.761 1.698,1.697 0,0.939 -0.76,1.699 -1.698,1.699 C 0.76,1.699 0,0.939 0,0" /></g><g
           transform="translate(248.5547,103.0479)"
           id="g74"><path
             id="path76"
             style="fill:#e90e47;fill-opacity:1;fill-rule:nonzero;stroke:none"
             d="M 0,0 -0.883,-0.58 C 9.65,-8.441 18.498,-15.201 18.498,-15.201 18.498,-15.201 8.939,-7.297 0,0" /></g><g
           transform="translate(234.2715,112.7139)"
           id="g78"><path
             id="path80"
             style="fill:#e90e47;fill-opacity:1;fill-rule:nonzero;stroke:none"
             d="M 0,0 C -4.533,3.232 -7.293,5.238 -9.734,7.809 -7.67,6.604 -4.023,4.311 0.672,0.764 Z M 9.355,-5.652 C 7.324,-4.008 5.439,-2.486 3.859,-1.229 -5.445,6.191 -11.482,9.209 -11.482,9.209 -7.336,4.211 -3.049,1.91 8.33,-6.479 Z" /></g></g></g><g
       id="g82"><g
         id="g84"><g
           id="g90"><g
             id="g92"><path
               id="path106"
               style="fill:url(#linearGradient104);stroke:none"
               d="m 252,280.87 c -0.112,-1.14 -0.129,-2.011 -0.053,-2.607 v 0 c 0.055,-0.404 0.211,-0.801 0.467,-1.188 v 0 c 0.258,-0.389 0.627,-0.72 1.108,-0.996 v 0 c 0.482,-0.275 1.209,-0.459 2.183,-0.555 v 0 c 0.808,-0.08 1.473,-0.04 1.992,0.117 v 0 c 0.524,0.157 0.949,0.397 1.283,0.716 v 0 c 0.334,0.317 0.583,0.724 0.743,1.218 v 0 c 0.16,0.494 0.3,1.354 0.421,2.578 v 0 l 0.527,5.359 -2.06,0.204 -0.554,-5.645 c -0.08,-0.806 -0.166,-1.381 -0.262,-1.724 v 0 c -0.094,-0.341 -0.301,-0.618 -0.621,-0.827 v 0 c -0.32,-0.208 -0.774,-0.287 -1.358,-0.228 v 0 c -0.576,0.055 -1.017,0.227 -1.324,0.512 v 0 c -0.307,0.285 -0.484,0.641 -0.531,1.068 v 0 c -0.025,0.264 0.005,0.834 0.092,1.713 v 0 l 0.543,5.525 -2.061,0.202 z m -12.154,5.289 c -0.785,-0.068 -1.446,-0.246 -1.979,-0.529 v 0 c -0.535,-0.285 -0.929,-0.668 -1.185,-1.146 v 0 c -0.255,-0.479 -0.36,-0.98 -0.315,-1.499 v 0 c 0.07,-0.808 0.444,-1.467 1.12,-1.974 v 0 c 0.48,-0.358 1.287,-0.629 2.415,-0.807 v 0 c 0.878,-0.138 1.44,-0.238 1.689,-0.3 v 0 c 0.364,-0.094 0.624,-0.222 0.78,-0.378 v 0 c 0.158,-0.158 0.246,-0.355 0.268,-0.597 v 0 c 0.032,-0.379 -0.108,-0.721 -0.42,-1.032 v 0 c -0.313,-0.31 -0.799,-0.494 -1.465,-0.55 v 0 c -0.625,-0.057 -1.137,0.056 -1.535,0.342 v 0 c -0.397,0.282 -0.684,0.756 -0.864,1.419 v 0 l -1.99,-0.369 c 0.234,-1.13 0.725,-1.965 1.469,-2.502 v 0 c 0.744,-0.536 1.761,-0.748 3.051,-0.636 v 0 c 0.888,0.078 1.619,0.267 2.191,0.568 v 0 c 0.572,0.298 0.999,0.72 1.279,1.26 v 0 c 0.279,0.539 0.397,1.099 0.344,1.685 v 0 c -0.056,0.645 -0.238,1.176 -0.549,1.592 v 0 c -0.31,0.416 -0.716,0.727 -1.218,0.939 v 0 c -0.504,0.212 -1.266,0.391 -2.292,0.539 v 0 c -1.023,0.151 -1.673,0.325 -1.953,0.52 v 0 c -0.22,0.154 -0.339,0.35 -0.361,0.592 v 0 c -0.023,0.265 0.069,0.487 0.274,0.662 v 0 c 0.316,0.277 0.775,0.439 1.374,0.492 v 0 c 0.581,0.051 1.026,-0.025 1.337,-0.23 v 0 c 0.31,-0.205 0.531,-0.564 0.666,-1.083 v 0 l 2.053,0.27 c -0.114,0.935 -0.521,1.658 -1.215,2.162 v 0 c -0.571,0.414 -1.337,0.621 -2.298,0.621 v 0 c -0.214,0 -0.438,-0.01 -0.671,-0.031 m 26.714,-12.191 3.348,-0.986 c 1.267,-0.366 2.073,-0.579 2.412,-0.643 v 0 c 0.546,-0.098 1.035,-0.075 1.471,0.074 v 0 c 0.434,0.145 0.816,0.4 1.15,0.759 v 0 c 0.332,0.364 0.565,0.766 0.697,1.214 v 0 c 0.169,0.568 0.153,1.109 -0.044,1.625 v 0 c -0.198,0.513 -0.57,0.949 -1.117,1.301 v 0 c 0.48,0.064 0.902,0.253 1.263,0.564 v 0 c 0.364,0.312 0.611,0.699 0.748,1.158 v 0 c 0.125,0.424 0.139,0.838 0.037,1.24 v 0 c -0.099,0.403 -0.271,0.75 -0.511,1.045 v 0 c -0.241,0.296 -0.543,0.529 -0.907,0.708 v 0 c -0.361,0.179 -0.931,0.382 -1.71,0.613 v 0 l -3.93,1.16 z m 6.489,4.56 c -0.195,0.034 -0.678,0.162 -1.451,0.391 v 0 l -1.301,0.384 0.671,2.276 1.14,-0.34 c 0.935,-0.273 1.496,-0.453 1.687,-0.533 v 0 c 0.318,-0.138 0.535,-0.328 0.646,-0.567 v 0 c 0.112,-0.24 0.121,-0.513 0.032,-0.816 v 0 c -0.095,-0.319 -0.266,-0.544 -0.517,-0.679 v 0 c -0.175,-0.096 -0.373,-0.145 -0.595,-0.145 v 0 c -0.1,0 -0.203,0.01 -0.312,0.029 m -0.797,-4.374 c -0.205,0.017 -0.664,0.13 -1.379,0.343 v 0 l -1.838,0.541 0.778,2.629 1.603,-0.472 c 0.902,-0.269 1.477,-0.489 1.719,-0.663 v 0 c 0.242,-0.174 0.404,-0.384 0.486,-0.632 v 0 c 0.084,-0.249 0.08,-0.52 -0.008,-0.815 v 0 c -0.101,-0.347 -0.277,-0.598 -0.525,-0.752 v 0 c -0.202,-0.125 -0.427,-0.188 -0.673,-0.188 v 0 c -0.054,0 -0.108,0.003 -0.163,0.009 m -58.604,5.646 c -0.851,-0.342 -1.427,-0.803 -1.728,-1.389 v 0 c -0.301,-0.585 -0.335,-1.164 -0.103,-1.74 v 0 c 0.124,-0.313 0.337,-0.61 0.642,-0.893 v 0 c 0.305,-0.281 0.695,-0.551 1.174,-0.805 v 0 c -0.579,-0.648 -0.951,-1.29 -1.12,-1.921 v 0 c -0.17,-0.635 -0.13,-1.256 0.116,-1.866 v 0 c 0.268,-0.669 0.736,-1.17 1.406,-1.499 v 0 c 0.865,-0.426 1.888,-0.401 3.076,0.074 v 0 c 0.596,0.238 1.079,0.527 1.446,0.865 v 0 c 0.367,0.338 0.671,0.758 0.918,1.258 v 0 c 0.683,-0.264 1.349,-0.42 1.996,-0.467 v 0 l 0.539,1.852 c -0.182,0.013 -0.479,0.07 -0.893,0.165 v 0 c -0.412,0.099 -0.759,0.202 -1.039,0.311 v 0 c 0.065,0.237 0.105,0.516 0.117,0.834 v 0 c 0.012,0.319 -0.015,0.803 -0.086,1.453 v 0 l -1.799,-0.283 c 0.067,-0.492 0.077,-0.906 0.032,-1.246 v 0 l -2.023,1.215 c 0.521,0.717 0.828,1.293 0.918,1.732 v 0 c 0.09,0.438 0.058,0.85 -0.097,1.232 v 0 c -0.244,0.608 -0.679,1.028 -1.312,1.262 v 0 c -0.262,0.098 -0.541,0.147 -0.836,0.147 v 0 c -0.416,0 -0.863,-0.097 -1.344,-0.291 m 0.666,-3.01 c -0.406,0.209 -0.654,0.426 -0.744,0.652 v 0 c -0.076,0.19 -0.06,0.391 0.045,0.602 v 0 c 0.108,0.209 0.305,0.375 0.594,0.488 v 0 c 0.301,0.122 0.571,0.133 0.811,0.04 v 0 c 0.242,-0.095 0.408,-0.257 0.501,-0.493 v 0 c 0.112,-0.275 0.042,-0.627 -0.209,-1.054 v 0 l -0.342,-0.575 z m 0.928,-5.597 c -0.355,0.146 -0.613,0.414 -0.771,0.808 v 0 c -0.125,0.31 -0.143,0.658 -0.055,1.041 v 0 c 0.088,0.381 0.299,0.761 0.633,1.143 v 0 l 2.775,-1.547 c -0.207,-0.385 -0.42,-0.686 -0.639,-0.903 v 0 c -0.218,-0.22 -0.47,-0.387 -0.758,-0.502 v 0 c -0.233,-0.093 -0.457,-0.14 -0.67,-0.14 v 0 c -0.18,0 -0.351,0.033 -0.515,0.1 m 65.724,-2.202 6.468,-3.207 0.765,1.549 -4.609,2.285 3.749,7.563 -1.855,0.92 z m 11.891,-6.57 1.723,-1.148 5.69,8.529 -1.721,1.148 z m -99.894,5.342 c -0.506,-0.157 -1.194,-0.568 -2.062,-1.237 v 0 l -3.455,-2.652 6.246,-8.131 1.64,1.262 -2.608,3.393 0.335,0.256 c 0.376,0.29 0.675,0.47 0.896,0.542 v 0 c 0.219,0.072 0.471,0.088 0.752,0.042 v 0 c 0.283,-0.045 0.877,-0.222 1.783,-0.532 v 0 l 2.547,-0.855 1.963,1.507 -2.211,0.823 c -0.879,0.332 -1.527,0.533 -1.949,0.603 v 0 c -0.42,0.068 -0.888,0.073 -1.402,0.006 v 0 c 0.632,0.651 0.978,1.314 1.031,1.986 v 0 c 0.052,0.672 -0.155,1.314 -0.624,1.925 v 0 c -0.369,0.479 -0.816,0.816 -1.339,1.009 v 0 c -0.288,0.105 -0.572,0.157 -0.855,0.157 v 0 c -0.231,0 -0.46,-0.035 -0.688,-0.104 m -2.818,-4.005 1.279,0.983 c 0.666,0.512 1.072,0.811 1.22,0.895 v 0 c 0.302,0.16 0.589,0.209 0.864,0.156 v 0 c 0.273,-0.059 0.518,-0.221 0.726,-0.495 v 0 c 0.188,-0.243 0.289,-0.489 0.303,-0.739 v 0 c 0.014,-0.249 -0.051,-0.481 -0.196,-0.696 v 0 c -0.145,-0.217 -0.611,-0.628 -1.397,-1.234 v 0 l -1.215,-0.931 z m 110.045,-6.486 1.439,-1.275 5.349,6.041 -3.829,-7.385 1.492,-1.32 6.871,4.693 -5.348,-6.042 1.442,-1.274 6.793,7.674 -2.325,2.058 -6.012,-4.015 3.243,6.468 -2.32,2.053 z m -118.845,-0.629 c -1.302,-0.013 -2.474,-0.57 -3.511,-1.666 v 0 c -0.575,-0.607 -0.982,-1.235 -1.224,-1.883 v 0 c -0.187,-0.487 -0.267,-1.021 -0.241,-1.597 v 0 c 0.024,-0.578 0.144,-1.132 0.363,-1.66 v 0 c 0.302,-0.715 0.831,-1.43 1.589,-2.149 v 0 c 1.185,-1.12 2.423,-1.676 3.718,-1.661 v 0 c 1.293,0.015 2.465,0.574 3.514,1.683 v 0 c 1.033,1.094 1.521,2.287 1.461,3.584 v 0 c -0.061,1.296 -0.692,2.513 -1.893,3.65 v 0 c -1.198,1.132 -2.439,1.699 -3.727,1.699 v 0 c -0.016,0 -0.032,0 -0.049,0 m 0.86,-8.59 c -0.803,0.024 -1.627,0.434 -2.471,1.233 v 0 c -0.855,0.81 -1.316,1.605 -1.383,2.386 v 0 c -0.064,0.782 0.195,1.484 0.781,2.103 v 0 c 0.586,0.618 1.268,0.92 2.042,0.896 v 0 c 0.774,-0.023 1.585,-0.44 2.439,-1.248 v 0 c 0.864,-0.816 1.331,-1.621 1.399,-2.414 v 0 c 0.066,-0.793 -0.184,-1.49 -0.751,-2.088 v 0 c -0.546,-0.578 -1.204,-0.869 -1.973,-0.869 v 0 c -0.027,0 -0.055,0.001 -0.083,0.001 m 129.5,-1.589 1.399,-1.694 2.333,0.833 2.609,-3.161 -1.224,-2.172 1.434,-1.736 5.289,9.696 -1.395,1.685 z m 5.468,-0.252 3.816,1.356 -2.033,-3.514 z m -151.765,-7.02 1.411,-1.012 1.771,2.474 6.922,-4.962 1.207,1.682 -6.924,4.963 1.769,2.465 -1.41,1.011 z m 162.5,0.41 1.64,-2.564 -7.175,-4.59 1.115,-1.742 7.174,4.59 1.637,-2.559 1.461,0.935 -4.391,6.864 z m -166.078,-8 c -1.023,-0.337 -1.834,-1.056 -2.432,-2.16 v 0 c -0.683,-1.263 -0.818,-2.507 -0.406,-3.73 v 0 c 0.411,-1.222 1.365,-2.242 2.868,-3.053 v 0 c 1.417,-0.769 2.745,-0.988 3.979,-0.658 v 0 c 1.235,0.328 2.177,1.09 2.825,2.287 v 0 c 0.523,0.969 0.717,1.895 0.578,2.786 v 0 c -0.137,0.886 -0.625,1.732 -1.463,2.534 v 0 l -1.513,-1.463 c 0.578,-0.507 0.927,-1.019 1.045,-1.535 v 0 c 0.119,-0.516 0.048,-1.015 -0.213,-1.497 v 0 c -0.356,-0.657 -0.885,-1.062 -1.593,-1.207 v 0 c -0.704,-0.149 -1.626,0.085 -2.767,0.701 v 0 c -1.074,0.581 -1.738,1.208 -1.994,1.886 v 0 c -0.254,0.674 -0.201,1.347 0.161,2.016 v 0 c 0.261,0.483 0.618,0.822 1.073,1.013 v 0 c 0.454,0.192 0.942,0.216 1.467,0.069 v 0 l 0.545,2.037 c -0.398,0.088 -0.771,0.132 -1.119,0.132 v 0 c -0.377,0 -0.725,-0.053 -1.041,-0.158 m 166.293,-8.988 0.941,-1.846 9.129,4.665 -0.941,1.843 z m -176.875,-11.654 9.545,-3.742 2.846,7.259 -1.609,0.631 -2.091,-5.331 -2.597,1.017 1.879,4.791 -1.609,0.631 -1.878,-4.792 -2.117,0.829 2.02,5.15 -1.616,0.633 z m 185.402,5.707 c -1.522,-0.59 -2.552,-1.471 -3.094,-2.646 v 0 c -0.543,-1.175 -0.538,-2.473 0.013,-3.893 v 0 c 0.542,-1.405 1.414,-2.358 2.609,-2.86 v 0 c 1.197,-0.501 2.566,-0.454 4.111,0.145 v 0 c 1.554,0.604 2.607,1.496 3.153,2.679 v 0 c 0.546,1.185 0.546,2.481 0.002,3.889 v 0 c -0.301,0.78 -0.694,1.417 -1.177,1.915 v 0 c -0.361,0.375 -0.808,0.676 -1.339,0.901 v 0 c -0.534,0.227 -1.084,0.354 -1.657,0.382 v 0 c -0.068,0.003 -0.137,0.005 -0.207,0.005 v 0 c -0.721,0 -1.525,-0.173 -2.414,-0.517 m 0.131,-7.466 c -0.746,0.278 -1.267,0.802 -1.566,1.572 v 0 c -0.299,0.769 -0.264,1.513 0.102,2.228 v 0 c 0.362,0.717 1.088,1.285 2.169,1.703 v 0 c 1.1,0.426 2.018,0.5 2.75,0.225 v 0 c 0.736,-0.275 1.256,-0.811 1.565,-1.607 v 0 c 0.309,-0.793 0.287,-1.536 -0.067,-2.225 v 0 c -0.353,-0.69 -1.078,-1.247 -2.174,-1.672 v 0 c -0.67,-0.26 -1.275,-0.39 -1.812,-0.39 v 0 c -0.351,0 -0.673,0.055 -0.967,0.166 m -188.396,-7.214 6.689,-4.373 -8,-0.56 -0.576,-2.17 10.85,0.908 0.566,2.137 -8.965,6.181 z m 189.09,-2.758 0.469,-1.867 6.482,1.633 -5.473,-5.639 0.508,-2.013 9.94,2.503 -0.469,1.864 -6.639,-1.672 5.613,5.742 -0.492,1.951 z m -42.236,-17.703 c -0.419,-0.003 -0.753,-0.343 -0.749,-0.761 v 0 c 0.004,-0.417 0.345,-0.751 0.762,-0.746 v 0 l 80.98,0.753 -80.98,0.754 z m -4.024,-6.287 c -0.416,-0.004 -0.752,-0.346 -0.748,-0.761 v 0 c 0.003,-0.416 0.344,-0.75 0.761,-0.747 v 0 l 89.028,0.755 -89.028,0.753 z m 96.662,-12.881 c -2.234,-1.881 -3.365,-4.493 -3.365,-7.767 v 0 c 0,-3.293 1.091,-5.91 3.246,-7.778 v 0 c 2.14,-1.859 5.014,-2.8 8.541,-2.8 v 0 c 2.197,0 4.371,0.388 6.463,1.156 v 0 l 0.467,0.172 -1.584,2.195 -0.27,-0.1 c -1.731,-0.644 -3.385,-0.978 -4.916,-0.998 v 0 c -2.268,0 -4.125,0.68 -5.523,2.022 v 0 c -1.399,1.338 -2.137,3.375 -2.2,6.051 v 0 c -0.04,2.693 0.651,4.761 2.059,6.141 v 0 c 1.406,1.386 3.357,2.09 5.789,2.09 v 0 c 1.496,-0.018 3.143,-0.337 4.896,-0.944 v 0 l 0.305,-0.108 1.262,2.384 -0.426,0.138 c -1.934,0.633 -3.953,0.955 -6,0.955 v 0 c -3.59,0 -6.531,-0.943 -8.744,-2.809 m -132.362,-0.156 c -2.093,-1.972 -3.156,-4.533 -3.156,-7.611 v 0 c 0,-1.46 0.254,-2.84 0.751,-4.106 v 0 c 0.497,-1.27 1.228,-2.404 2.17,-3.369 v 0 c 0.946,-0.97 2.168,-1.74 3.627,-2.285 v 0 c 1.45,-0.543 3.095,-0.818 4.89,-0.818 v 0 c 3.426,0 6.223,0.998 8.311,2.964 v 0 c 2.093,1.973 3.156,4.533 3.156,7.614 v 0 c 0,1.456 -0.252,2.838 -0.751,4.103 v 0 c -0.497,1.27 -1.228,2.402 -2.169,3.37 v 0 c -0.947,0.97 -2.167,1.74 -3.627,2.285 v 0 c -1.451,0.543 -3.107,0.818 -4.92,0.818 v 0 c -3.406,0 -6.194,-0.998 -8.282,-2.965 m 3.118,-13.556 c -1.297,1.502 -1.986,3.476 -2.048,5.865 v 0 c -0.04,2.406 0.595,4.394 1.888,5.912 v 0 c 1.298,1.523 2.99,2.281 5.166,2.319 v 0 l 0.08,0.369 h 0.002 v -0.369 c 2.213,0 3.98,-0.745 5.256,-2.21 v 0 c 1.304,-1.5 1.986,-3.475 2.026,-5.863 v 0 c 0.042,-2.408 -0.587,-4.394 -1.871,-5.912 v 0 c -1.288,-1.526 -2.984,-2.281 -5.266,-2.319 v 0 c -2.21,0 -3.969,0.744 -5.233,2.208 m 164.357,16.238 v -8.697 h -11.783 v 8.697 h -4.064 v -20.588 h 4.064 v 9.49 h 11.783 v -9.49 h 4.065 v 20.588 z m -47.063,0 v -15.183 l -10.235,15.183 h -5.034 v -20.588 h 3.937 v 15.231 l 10.403,-15.067 0.113,-0.164 h 4.754 v 20.588 z m -24.815,0 V 151.87 c 0,-1.672 -0.438,-3.014 -1.304,-3.987 v 0 c -0.853,-0.958 -2.181,-1.445 -3.944,-1.445 v 0 c -0.936,0 -1.759,0.141 -2.45,0.414 v 0 c -0.676,0.266 -1.219,0.649 -1.616,1.135 v 0 c -0.406,0.497 -0.706,1.066 -0.893,1.697 v 0 c -0.192,0.641 -0.29,1.367 -0.29,2.159 v 0 13.041 h -4.066 v -13.041 c 0,-2.354 0.828,-4.268 2.459,-5.697 v 0 c 1.617,-1.414 3.922,-2.133 6.856,-2.133 v 0 c 2.884,0 5.183,0.711 6.833,2.115 v 0 c 1.666,1.42 2.512,3.341 2.512,5.715 v 0 13.041 z m -36.581,0 v -20.588 h 4.064 v 7.82 h 5.409 c 2.279,0 4.194,0.553 5.688,1.644 v 0 c 1.531,1.12 2.308,2.711 2.308,4.739 v 0 c 0,1.285 -0.359,2.432 -1.068,3.41 v 0 c -0.703,0.971 -1.672,1.719 -2.876,2.221 v 0 c -1.187,0.5 -2.55,0.754 -4.052,0.754 v 0 z m 4.064,-2.426 h 4.317 c 1.514,0 2.75,-0.364 3.674,-1.082 v 0 c 0.906,-0.707 1.348,-1.649 1.348,-2.877 v 0 c 0,-1.3 -0.444,-2.264 -1.358,-2.939 v 0 c -0.934,-0.696 -2.167,-1.045 -3.664,-1.045 v 0 h -4.317 z m -38.556,2.426 v -20.588 h 4.065 v 8.443 h 4.271 l 5.662,-8.443 h 4.537 l -6.283,8.726 c 1.451,0.307 2.656,0.907 3.588,1.79 v 0 c 1.082,1.021 1.629,2.368 1.629,3.999 v 0 c 0,1.229 -0.336,2.323 -1.002,3.25 v 0 c -0.662,0.926 -1.571,1.636 -2.699,2.112 v 0 c -1.115,0.47 -2.399,0.711 -3.813,0.711 v 0 z m 4.065,-2.397 h 4.412 c 1.472,0 2.685,-0.343 3.601,-1.017 v 0 c 0.892,-0.659 1.326,-1.527 1.326,-2.659 v 0 c 0,-1.185 -0.434,-2.066 -1.32,-2.695 v 0 c -0.918,-0.65 -2.13,-0.98 -3.607,-0.98 v 0 h -4.412 z m -51.354,2.397 v -2.397 h 7.297 v -18.191 h 4.1 v 18.191 h 7.294 v 2.397 z m -7.682,0 v -15.183 l -10.236,15.183 h -5.033 v -20.588 h 3.937 v 15.231 l 10.403,-15.067 0.111,-0.164 h 4.756 v 20.588 z m -31.888,0 -8.875,-20.588 h 4.394 l 2.501,6.119 h 8.177 l 2.51,-6.119 h 4.427 l -8.91,20.588 z m 2.099,-4.479 3.115,-7.59 h -6.216 z M 176.56,144.296 h 4.064 v 20.587 h -4.064 z m -10.968,20.588 -7.653,-16.545 -7.68,16.545 h -6.005 v -20.588 h 3.904 v 15.769 l 7.681,-15.769 h 3.333 l 7.682,15.769 v -15.769 h 3.904 v 20.588 z m -43.197,0 v -20.588 h 4.064 v 8.443 h 4.271 l 5.662,-8.443 h 4.54 l -6.286,8.726 c 1.454,0.307 2.659,0.907 3.59,1.79 v 0 c 1.08,1.021 1.629,2.368 1.629,3.999 v 0 c 0,1.229 -0.338,2.323 -1.001,3.25 v 0 c -0.663,0.926 -1.571,1.636 -2.702,2.112 v 0 c -1.113,0.47 -2.397,0.711 -3.811,0.711 v 0 z m 4.064,-2.397 h 4.414 c 1.473,0 2.683,-0.343 3.601,-1.017 v 0 c 0.891,-0.659 1.325,-1.527 1.325,-2.659 v 0 c 0,-1.185 -0.432,-2.066 -1.318,-2.695 v 0 c -0.918,-0.65 -2.133,-0.98 -3.608,-0.98 v 0 h -4.414 z m -25.473,2.397 v -20.588 h 17.246 v 2.397 h -13.181 v 7.093 h 12.023 v 2.401 h -12.023 v 6.3 h 12.795 v 2.397 z m -22.566,0 v -2.397 h 7.297 v -18.191 h 4.098 v 18.191 h 7.296 v 2.397 z m 261.357,-41.188 c -0.463,-0.374 -0.845,-1.045 -1.148,-2.015 v 0 c -0.318,-1.02 -0.344,-1.836 -0.076,-2.452 v 0 c 0.265,-0.617 0.706,-1.019 1.322,-1.21 v 0 c 0.68,-0.214 1.299,-0.098 1.858,0.344 v 0 c 0.4,0.317 1.005,1.181 1.81,2.591 v 0 c 0.178,0.303 0.324,0.485 0.443,0.551 v 0 c 0.122,0.061 0.254,0.066 0.397,0.023 v 0 c 0.209,-0.066 0.349,-0.199 0.421,-0.404 v 0 c 0.102,-0.299 0.079,-0.693 -0.073,-1.177 v 0 c -0.137,-0.442 -0.339,-0.755 -0.604,-0.94 v 0 c -0.266,-0.185 -0.593,-0.262 -0.984,-0.229 v 0 l -0.3,-1.972 c 0.727,-0.035 1.374,0.168 1.94,0.607 v 0 c 0.567,0.441 1.002,1.145 1.303,2.11 v 0 c 0.332,1.064 0.347,1.941 0.05,2.629 v 0 c -0.298,0.691 -0.771,1.134 -1.422,1.337 v 0 c -0.594,0.185 -1.122,0.135 -1.577,-0.152 v 0 c -0.453,-0.293 -0.948,-0.905 -1.486,-1.832 v 0 c -0.539,-0.93 -0.898,-1.459 -1.075,-1.588 v 0 c -0.133,-0.095 -0.265,-0.123 -0.399,-0.082 v 0 c -0.155,0.049 -0.259,0.16 -0.314,0.334 v 0 c -0.072,0.255 -0.029,0.631 0.124,1.125 v 0 c 0.122,0.392 0.29,0.67 0.501,0.836 v 0 c 0.215,0.166 0.471,0.242 0.77,0.232 v 0 l 0.224,1.871 c -0.023,10e-4 -0.047,10e-4 -0.071,10e-4 v 0 c -0.643,0 -1.187,-0.178 -1.634,-0.538 m -185.248,-0.259 c -1.531,-0.506 -2.601,-1.32 -3.21,-2.444 v 0 c -0.61,-1.121 -0.702,-2.33 -0.276,-3.625 v 0 c 0.343,-1.043 0.885,-1.821 1.625,-2.33 v 0 c 0.741,-0.509 1.689,-0.738 2.848,-0.678 v 0 l -0.024,2.104 c -0.766,-0.071 -1.377,0.028 -1.834,0.295 v 0 c -0.456,0.265 -0.77,0.662 -0.942,1.183 v 0 c -0.234,0.71 -0.162,1.372 0.216,1.985 v 0 c 0.377,0.617 1.179,1.127 2.412,1.531 v 0 c 1.16,0.381 2.072,0.435 2.738,0.155 v 0 c 0.666,-0.278 1.117,-0.778 1.356,-1.501 v 0 c 0.172,-0.523 0.172,-1.015 0,-1.477 v 0 c -0.172,-0.461 -0.491,-0.831 -0.958,-1.112 v 0 l 1.106,-1.794 c 0.705,0.479 1.194,1.006 1.464,1.586 v 0 c 0.459,0.977 0.493,2.061 0.1,3.253 v 0 c -0.447,1.36 -1.26,2.316 -2.431,2.857 v 0 c -0.591,0.272 -1.24,0.409 -1.945,0.409 v 0 c -0.693,0 -1.442,-0.132 -2.245,-0.397 m 182.789,-8.981 c -0.916,-0.321 -1.576,-0.996 -1.986,-2.022 v 0 c -0.366,-0.913 -0.344,-1.796 0.065,-2.654 v 0 c 0.407,-0.855 1.183,-1.512 2.325,-1.968 v 0 c 0.958,-0.382 1.843,-0.473 2.651,-0.27 v 0 c 1.014,0.264 1.76,0.996 2.238,2.193 v 0 c 0.303,0.758 0.381,1.459 0.232,2.104 v 0 c -0.146,0.642 -0.506,1.214 -1.077,1.715 v 0 l -1.033,-1.696 c 0.306,-0.238 0.499,-0.488 0.578,-0.744 v 0 c 0.078,-0.256 0.058,-0.525 -0.055,-0.812 v 0 c -0.168,-0.422 -0.459,-0.711 -0.873,-0.874 v 0 c -0.413,-0.162 -0.893,-0.14 -1.439,0.065 v 0 l 1.827,4.57 c -0.893,0.377 -1.689,0.566 -2.386,0.566 v 0 c -0.385,0 -0.741,-0.058 -1.067,-0.173 m -0.506,-3.629 c -0.187,0.377 -0.199,0.762 -0.04,1.16 v 0 c 0.147,0.374 0.411,0.633 0.79,0.784 v 0 c 0.379,0.15 0.836,0.124 1.368,-0.073 v 0 l -1.09,-2.726 c -0.498,0.195 -0.842,0.48 -1.028,0.855 M 156.65,110.37 c -0.64,-0.278 -1.109,-0.578 -1.402,-0.897 v 0 c -0.293,-0.32 -0.461,-0.706 -0.504,-1.158 v 0 c -0.043,-0.449 0.035,-0.905 0.232,-1.361 v 0 c 0.196,-0.449 0.485,-0.83 0.87,-1.145 v 0 c 0.384,-0.31 0.812,-0.515 1.285,-0.603 v 0 l -1.022,-0.443 0.727,-1.676 6.813,2.955 -0.781,1.802 -2.874,-1.245 c -0.977,-0.422 -1.608,-0.643 -1.896,-0.661 v 0 c -0.289,-0.021 -0.573,0.055 -0.848,0.225 v 0 c -0.274,0.172 -0.476,0.411 -0.611,0.719 v 0 c -0.117,0.269 -0.151,0.52 -0.1,0.75 v 0 c 0.049,0.23 0.168,0.424 0.355,0.584 v 0 c 0.188,0.162 0.76,0.447 1.719,0.861 v 0 l 3.131,1.361 -0.784,1.801 z m 176.619,-5.01 c -0.316,-0.046 -0.63,-0.197 -0.943,-0.445 v 0 c -0.312,-0.252 -0.57,-0.58 -0.771,-0.984 v 0 c -0.395,-0.787 -0.401,-1.632 -0.022,-2.53 v 0 l -3.37,1.684 -0.88,-1.758 9.17,-4.58 0.879,1.758 -3.329,1.662 c -0.558,0.279 -0.954,0.543 -1.187,0.791 v 0 c -0.232,0.25 -0.36,0.525 -0.388,0.827 v 0 c -0.027,0.298 0.031,0.595 0.178,0.886 v 0 c 0.127,0.254 0.289,0.438 0.482,0.553 v 0 c 0.195,0.113 0.404,0.156 0.625,0.128 v 0 c 0.22,-0.025 0.679,-0.215 1.375,-0.56 v 0 l 3.51,-1.754 0.878,1.758 -3.898,1.945 c -0.595,0.301 -1.051,0.489 -1.365,0.569 v 0 c -0.197,0.051 -0.395,0.077 -0.593,0.077 v 0 c -0.117,0 -0.234,-0.009 -0.351,-0.027 m -169.912,-3.564 c -0.629,-0.338 -0.98,-0.859 -1.055,-1.568 v 0 c -0.054,-0.508 0.142,-1.546 0.584,-3.108 v 0 c 0.092,-0.336 0.12,-0.568 0.085,-0.701 v 0 c -0.043,-0.129 -0.131,-0.229 -0.26,-0.299 v 0 c -0.193,-0.104 -0.389,-0.109 -0.586,-0.022 v 0 c -0.285,0.139 -0.549,0.432 -0.789,0.88 v 0 c -0.219,0.406 -0.301,0.769 -0.248,1.088 v 0 c 0.053,0.322 0.228,0.606 0.525,0.863 v 0 l -1.199,1.594 c -0.535,-0.492 -0.841,-1.096 -0.924,-1.811 v 0 c -0.082,-0.713 0.115,-1.516 0.596,-2.407 v 0 c 0.527,-0.98 1.143,-1.605 1.842,-1.876 v 0 c 0.701,-0.268 1.351,-0.242 1.951,0.082 v 0 c 0.548,0.295 0.88,0.707 0.994,1.232 v 0 c 0.108,0.529 0.018,1.31 -0.268,2.346 v 0 c -0.287,1.033 -0.414,1.66 -0.385,1.878 v 0 c 0.026,0.161 0.1,0.276 0.223,0.341 v 0 c 0.144,0.078 0.297,0.076 0.458,-0.007 v 0 c 0.232,-0.128 0.472,-0.421 0.716,-0.878 v 0 c 0.195,-0.362 0.277,-0.674 0.247,-0.943 v 0 c -0.03,-0.268 -0.155,-0.506 -0.372,-0.711 v 0 l 1.18,-1.471 c 0.482,0.471 0.751,1.004 0.808,1.596 v 0 c 0.059,0.591 -0.154,1.336 -0.634,2.23 v 0 c -0.506,0.94 -1.072,1.531 -1.7,1.77 v 0 c -0.276,0.105 -0.546,0.158 -0.809,0.158 v 0 c -0.336,0 -0.662,-0.085 -0.98,-0.256 m 164.532,-5.967 c -0.612,-0.252 -1.153,-0.764 -1.626,-1.533 v 0 c -0.575,-0.943 -0.744,-1.87 -0.499,-2.778 v 0 c 0.244,-0.91 0.888,-1.685 1.933,-2.323 v 0 c 1.035,-0.633 2.012,-0.856 2.934,-0.663 v 0 c 0.922,0.194 1.666,0.753 2.234,1.68 v 0 c 0.499,0.812 0.706,1.582 0.616,2.303 v 0 c -0.089,0.721 -0.458,1.398 -1.11,2.031 v 0 l -1.287,-1.472 c 0.39,-0.354 0.614,-0.688 0.669,-1.003 v 0 c 0.057,-0.312 -0.011,-0.628 -0.207,-0.945 v 0 c -0.261,-0.428 -0.622,-0.67 -1.087,-0.733 v 0 c -0.465,-0.064 -1.072,0.135 -1.824,0.596 v 0 c -0.676,0.416 -1.083,0.834 -1.217,1.258 v 0 c -0.137,0.426 -0.078,0.845 0.177,1.264 v 0 c 0.194,0.314 0.434,0.519 0.721,0.615 v 0 c 0.287,0.094 0.613,0.066 0.979,-0.078 v 0 l 0.713,1.834 c -0.371,0.1 -0.722,0.15 -1.052,0.15 v 0 c -0.383,0 -0.739,-0.067 -1.067,-0.203 m -157.545,-2.134 -0.483,0.763 -1.324,-0.836 0.482,-0.764 -2.736,-1.73 c -0.588,-0.371 -0.965,-0.635 -1.137,-0.793 v 0 c -0.244,-0.215 -0.412,-0.431 -0.499,-0.643 v 0 c -0.088,-0.212 -0.108,-0.471 -0.057,-0.775 v 0 c 0.052,-0.303 0.174,-0.605 0.363,-0.904 v 0 c 0.309,-0.491 0.666,-0.875 1.076,-1.157 v 0 l 1.199,0.955 c -0.291,0.225 -0.484,0.414 -0.581,0.569 v 0 c -0.071,0.109 -0.102,0.222 -0.094,0.332 v 0 c 0.006,0.114 0.045,0.205 0.115,0.281 v 0 c 0.072,0.075 0.363,0.275 0.875,0.6 v 0 l 2.531,1.598 0.717,-1.133 1.324,0.836 -0.718,1.135 2.218,1.4 -2.023,1.055 z m 149.396,-6.802 1.199,-0.861 -0.525,-0.734 1.274,-0.912 0.525,0.732 2.63,-1.887 c 0.565,-0.402 0.952,-0.654 1.163,-0.753 v 0 c 0.291,-0.147 0.553,-0.222 0.783,-0.222 v 0 c 0.231,-0.003 0.476,0.077 0.74,0.239 v 0 c 0.262,0.162 0.497,0.387 0.704,0.676 v 0 c 0.335,0.469 0.558,0.945 0.666,1.432 v 0 l -1.339,0.751 c -0.097,-0.353 -0.2,-0.605 -0.307,-0.751 v 0 c -0.075,-0.106 -0.165,-0.179 -0.272,-0.214 v 0 c -0.106,-0.036 -0.207,-0.035 -0.304,0.002 v 0 c -0.095,0.038 -0.39,0.233 -0.882,0.586 v 0 l -2.434,1.744 0.784,1.09 -1.274,0.915 -0.784,-1.09 -2.13,1.525 z m -147.131,0.169 c -0.681,-0.108 -1.285,-0.356 -1.808,-0.747 v 0 c -0.684,-0.507 -1.168,-1.07 -1.453,-1.683 v 0 c -0.286,-0.613 -0.366,-1.258 -0.244,-1.937 v 0 c 0.123,-0.681 0.386,-1.292 0.793,-1.839 v 0 c 0.657,-0.882 1.497,-1.392 2.523,-1.534 v 0 c 1.025,-0.139 1.99,0.126 2.89,0.796 v 0 c 0.895,0.664 1.419,1.506 1.577,2.515 v 0 c 0.156,1.012 -0.102,1.97 -0.774,2.87 v 0 c -0.433,0.582 -0.955,1.016 -1.566,1.295 v 0 c -0.442,0.205 -0.904,0.307 -1.384,0.307 v 0 c -0.182,0 -0.367,-0.015 -0.554,-0.043 m -0.191,-5.928 c -0.522,0.045 -0.934,0.273 -1.241,0.683 v 0 c -0.306,0.412 -0.407,0.875 -0.302,1.389 v 0 c 0.105,0.516 0.453,0.994 1.045,1.432 v 0 c 0.59,0.439 1.148,0.636 1.67,0.589 v 0 c 0.523,-0.047 0.937,-0.273 1.244,-0.687 v 0 c 0.307,-0.41 0.406,-0.873 0.299,-1.384 v 0 c -0.106,-0.514 -0.451,-0.985 -1.035,-1.421 v 0 c -0.543,-0.404 -1.055,-0.607 -1.535,-0.607 v 0 c -0.049,0 -0.097,0.002 -0.145,0.006 m 145.478,0.697 c -0.435,-0.196 -0.933,-0.629 -1.496,-1.301 v 0 c -0.619,-0.74 -0.955,-1.41 -1.003,-2.006 v 0 c -0.051,-0.598 0.136,-1.202 0.556,-1.818 v 0 l 1.392,1.162 c -0.187,0.315 -0.269,0.59 -0.249,0.828 v 0 c 0.021,0.239 0.142,0.492 0.367,0.76 v 0 c 0.331,0.397 0.619,0.615 0.863,0.654 v 0 c 0.242,0.041 0.51,-0.06 0.799,-0.303 v 0 l 0.15,-0.126 c -0.112,-0.368 -0.398,-0.957 -0.855,-1.772 v 0 c -0.338,-0.607 -0.554,-1.106 -0.653,-1.494 v 0 c -0.097,-0.388 -0.085,-0.765 0.037,-1.131 v 0 c 0.126,-0.363 0.349,-0.681 0.668,-0.949 v 0 c 0.487,-0.408 1.03,-0.576 1.632,-0.504 v 0 c 0.601,0.071 1.146,0.4 1.636,0.986 v 0 c 0.279,0.332 0.479,0.697 0.599,1.096 v 0 c 0.12,0.396 0.162,0.828 0.127,1.297 v 0 c 0.038,-0.013 0.112,-0.047 0.224,-0.093 v 0 c 0.244,-0.11 0.433,-0.186 0.566,-0.229 v 0 l 1.248,1.49 c -0.383,0.096 -0.713,0.219 -0.993,0.369 v 0 c -0.277,0.151 -0.666,0.436 -1.167,0.853 v 0 l -1.744,1.489 c -0.655,0.549 -1.16,0.857 -1.518,0.93 v 0 c -0.094,0.018 -0.191,0.028 -0.291,0.028 v 0 c -0.278,0 -0.575,-0.072 -0.895,-0.216 m 1.682,-5.861 c -0.213,0.179 -0.308,0.427 -0.283,0.74 v 0 c 0.021,0.2 0.164,0.549 0.424,1.041 v 0 c 0.262,0.492 0.439,0.863 0.537,1.11 v 0 l 0.301,-0.252 c 0.361,-0.302 0.589,-0.528 0.685,-0.674 v 0 c 0.149,-0.223 0.215,-0.481 0.197,-0.776 v 0 c -0.026,-0.396 -0.154,-0.732 -0.382,-1.004 v 0 c -0.203,-0.242 -0.447,-0.377 -0.733,-0.406 v 0 c -0.041,-0.004 -0.081,-0.006 -0.121,-0.006 v 0 c -0.236,0 -0.444,0.076 -0.625,0.227 m -144.632,-1.375 1.347,-1.428 2.625,2.476 c 0.518,0.489 0.925,0.801 1.221,0.936 v 0 c 0.297,0.135 0.587,0.17 0.871,0.106 v 0 c 0.287,-0.065 0.533,-0.207 0.74,-0.428 v 0 c 0.174,-0.184 0.273,-0.364 0.298,-0.539 v 0 c 0.026,-0.178 -0.013,-0.364 -0.117,-0.559 v 0 c -0.105,-0.195 -0.419,-0.539 -0.945,-1.035 v 0 l -2.961,-2.793 1.348,-1.43 2.593,2.447 c 0.511,0.481 0.918,0.793 1.229,0.938 v 0 c 0.309,0.145 0.607,0.185 0.896,0.123 v 0 c 0.287,-0.061 0.526,-0.191 0.716,-0.392 v 0 c 0.259,-0.274 0.349,-0.574 0.269,-0.899 v 0 c -0.062,-0.244 -0.361,-0.619 -0.896,-1.125 v 0 l -3.088,-2.912 1.347,-1.43 3.453,3.258 c 0.518,0.485 0.844,0.887 0.981,1.204 v 0 c 0.184,0.429 0.226,0.859 0.129,1.285 v 0 c -0.098,0.426 -0.334,0.838 -0.709,1.234 v 0 c -0.293,0.312 -0.641,0.537 -1.043,0.679 v 0 c -0.403,0.141 -0.857,0.192 -1.369,0.159 v 0 c 0.133,0.433 0.152,0.846 0.055,1.236 v 0 c -0.098,0.387 -0.311,0.754 -0.638,1.1 v 0 c -0.612,0.65 -1.429,0.941 -2.447,0.875 v 0 l 0.738,0.693 -1.243,1.318 z m 133.923,1.332 c -0.345,-0.192 -0.968,-0.728 -1.871,-1.608 v 0 l -2.377,-2.318 7.154,-7.341 1.483,1.444 -2.699,2.77 0.966,0.942 c 0.671,0.656 1.148,1.189 1.436,1.603 v 0 c 0.203,0.31 0.348,0.675 0.428,1.098 v 0 c 0.082,0.422 0.054,0.865 -0.08,1.332 v 0 c -0.137,0.465 -0.424,0.926 -0.864,1.375 v 0 c -0.57,0.586 -1.175,0.923 -1.818,1.015 v 0 c -0.151,0.022 -0.299,0.032 -0.444,0.032 v 0 c -0.472,0 -0.91,-0.114 -1.314,-0.344 m -1.557,-3.723 0.717,0.698 c 0.533,0.521 0.907,0.849 1.116,0.99 v 0 c 0.283,0.189 0.587,0.275 0.911,0.254 v 0 c 0.327,-0.02 0.62,-0.162 0.881,-0.431 v 0 c 0.211,-0.216 0.341,-0.462 0.389,-0.734 v 0 c 0.047,-0.273 0.01,-0.544 -0.111,-0.812 v 0 c -0.123,-0.268 -0.477,-0.687 -1.061,-1.256 v 0 l -0.81,-0.793 z m -116.275,-12.91 6.324,-4.56 1.01,1.402 -4.644,3.348 1.631,2.263 4.173,-3.008 1.012,1.399 -4.176,3.01 1.328,1.845 4.488,-3.234 1.014,1.406 -6.168,4.443 z m 103.84,5.279 c -0.752,-0.527 -1.209,-1.107 -1.369,-1.748 v 0 c -0.16,-0.635 -0.063,-1.211 0.293,-1.717 v 0 c 0.191,-0.275 0.468,-0.516 0.827,-0.723 v 0 c 0.362,-0.207 0.803,-0.38 1.327,-0.517 v 0 c -0.416,-0.763 -0.633,-1.472 -0.654,-2.127 v 0 c -0.022,-0.654 0.156,-1.252 0.533,-1.789 v 0 c 0.414,-0.591 0.984,-0.975 1.713,-1.142 v 0 c 0.937,-0.221 1.93,0.037 2.976,0.769 v 0 c 0.528,0.368 0.932,0.758 1.214,1.17 v 0 c 0.279,0.412 0.484,0.891 0.609,1.433 v 0 c 0.726,-0.101 1.408,-0.103 2.048,0 v 0 l 0.106,1.925 c -0.179,-0.032 -0.483,-0.044 -0.907,-0.042 v 0 c -0.425,0.003 -0.784,0.024 -1.081,0.067 v 0 c 0.009,0.244 -0.016,0.525 -0.077,0.839 v 0 c -0.06,0.314 -0.197,0.78 -0.411,1.395 v 0 l -1.688,-0.684 c 0.176,-0.462 0.279,-0.866 0.313,-1.205 v 0 l -2.247,0.725 c 0.346,0.814 0.512,1.447 0.502,1.894 v 0 c -0.011,0.446 -0.136,0.841 -0.373,1.18 v 0 c -0.375,0.536 -0.897,0.846 -1.564,0.932 v 0 c -0.094,0.011 -0.188,0.017 -0.283,0.017 v 0 c -0.58,0 -1.183,-0.216 -1.807,-0.652 m 1.33,-2.781 c -0.444,0.111 -0.733,0.266 -0.871,0.465 v 0 c -0.119,0.168 -0.149,0.365 -0.094,0.595 v 0 c 0.057,0.231 0.211,0.434 0.467,0.614 v 0 c 0.263,0.184 0.525,0.258 0.782,0.221 v 0 c 0.255,-0.037 0.454,-0.159 0.599,-0.366 v 0 c 0.172,-0.244 0.184,-0.604 0.035,-1.076 v 0 l -0.203,-0.636 z m 2.174,-5.242 c -0.381,0.06 -0.693,0.263 -0.936,0.611 v 0 c -0.191,0.278 -0.288,0.612 -0.288,1.004 v 0 c -0.003,0.391 0.117,0.81 0.357,1.254 v 0 l 3.053,-0.877 c -0.114,-0.42 -0.254,-0.764 -0.417,-1.026 v 0 c -0.164,-0.261 -0.373,-0.48 -0.625,-0.658 v 0 c -0.31,-0.216 -0.623,-0.325 -0.934,-0.325 v 0 c -0.07,0 -0.14,0.006 -0.21,0.017 m -97.182,-4.32 1.742,-0.913 1.674,3.198 c 0.33,0.631 0.614,1.058 0.85,1.283 v 0 c 0.236,0.223 0.498,0.353 0.789,0.384 v 0 c 0.291,0.032 0.57,-0.023 0.838,-0.161 v 0 c 0.222,-0.117 0.377,-0.256 0.459,-0.414 v 0 c 0.082,-0.161 0.105,-0.351 0.07,-0.567 v 0 c -0.035,-0.218 -0.221,-0.649 -0.554,-1.287 v 0 l -1.89,-3.606 1.741,-0.912 1.654,3.16 c 0.326,0.619 0.61,1.047 0.855,1.284 v 0 c 0.245,0.238 0.514,0.375 0.808,0.412 v 0 c 0.29,0.035 0.56,-0.01 0.804,-0.139 v 0 c 0.334,-0.173 0.518,-0.427 0.549,-0.759 v 0 c 0.019,-0.254 -0.141,-0.706 -0.482,-1.36 v 0 l -1.971,-3.759 1.742,-0.911 2.203,4.205 c 0.328,0.627 0.506,1.114 0.533,1.458 v 0 c 0.033,0.466 -0.065,0.884 -0.297,1.257 v 0 c -0.232,0.371 -0.589,0.682 -1.072,0.936 v 0 c -0.38,0.199 -0.783,0.299 -1.207,0.3 v 0 c -0.428,0.002 -0.875,-0.098 -1.348,-0.297 v 0 c -0.015,0.456 -0.13,0.852 -0.351,1.186 v 0 c -0.219,0.336 -0.539,0.615 -0.959,0.836 v 0 c -0.793,0.414 -1.661,0.424 -2.599,0.028 v 0 l 0.47,0.896 -1.604,0.842 z m 82.471,2.388 0.572,-5.519 -3.777,4.084 -1.909,-0.854 5.624,-5.641 c 0.064,-0.427 0.051,-0.808 -0.039,-1.14 v 0 c -0.092,-0.336 -0.344,-0.596 -0.763,-0.784 v 0 c -0.224,-0.101 -0.489,-0.187 -0.796,-0.257 v 0 l 0.789,-1.332 c 0.366,0.076 0.718,0.192 1.062,0.345 v 0 c 0.34,0.155 0.629,0.327 0.868,0.52 v 0 c 0.238,0.193 0.419,0.397 0.546,0.609 v 0 c 0.128,0.213 0.215,0.454 0.267,0.727 v 0 c 0.048,0.274 0.062,0.643 0.042,1.109 v 0 l -0.101,1.372 -0.527,7.593 z m -68.268,-9.27 1.723,-0.601 0.359,1.03 c 0.145,-0.489 0.377,-0.903 0.698,-1.239 v 0 c 0.318,-0.336 0.679,-0.574 1.08,-0.715 v 0 c 0.814,-0.285 1.619,-0.203 2.416,0.245 v 0 c 0.795,0.449 1.402,1.271 1.82,2.467 v 0 c 0.404,1.158 0.436,2.143 0.092,2.956 v 0 c -0.342,0.814 -0.942,1.37 -1.795,1.669 v 0 c -0.783,0.272 -1.574,0.185 -2.375,-0.267 v 0 l 1.219,3.487 -1.856,0.646 z m 3.923,0.098 c -0.534,0.186 -0.873,0.583 -1.022,1.186 v 0 c -0.108,0.427 -0.035,1.004 0.219,1.732 v 0 c 0.246,0.701 0.576,1.176 0.992,1.419 v 0 c 0.415,0.242 0.846,0.284 1.291,0.13 v 0 c 0.453,-0.156 0.761,-0.465 0.93,-0.92 v 0 c 0.165,-0.457 0.109,-1.086 -0.17,-1.887 v 0 c -0.264,-0.751 -0.601,-1.254 -1.01,-1.501 v 0 c -0.262,-0.158 -0.522,-0.238 -0.782,-0.238 v 0 c -0.15,0 -0.299,0.027 -0.448,0.079 m 56.185,5.998 c -0.301,-0.099 -0.546,-0.264 -0.733,-0.492 v 0 c -0.187,-0.231 -0.349,-0.628 -0.49,-1.201 v 0 l -0.33,1.004 -1.734,-0.573 2.327,-7.052 1.866,0.615 -0.719,2.18 c -0.396,1.199 -0.603,2.004 -0.625,2.414 v 0 c -0.019,0.412 0.037,0.718 0.172,0.922 v 0 c 0.133,0.203 0.332,0.35 0.592,0.435 v 0 c 0.271,0.088 0.595,0.082 0.979,-0.017 v 0 l 0.04,1.818 c -0.202,0.045 -0.4,0.068 -0.594,0.068 v 0 c -0.258,0 -0.508,-0.04 -0.751,-0.121 m -18.848,-1.57 0.324,-3.678 c -0.663,0.633 -1.408,0.915 -2.236,0.84 v 0 c -0.9,-0.08 -1.617,-0.471 -2.151,-1.174 v 0 c -0.531,-0.704 -0.744,-1.686 -0.632,-2.937 v 0 c 0.109,-1.227 0.496,-2.154 1.162,-2.788 v 0 c 0.666,-0.632 1.423,-0.91 2.273,-0.835 v 0 c 0.418,0.037 0.824,0.177 1.217,0.419 v 0 c 0.393,0.243 0.721,0.588 0.986,1.038 v 0 l 0.096,-1.086 1.819,0.16 -0.899,10.211 z m -2.228,-8.326 c -0.251,0.332 -0.409,0.894 -0.479,1.684 v 0 c -0.064,0.734 0.043,1.3 0.325,1.697 v 0 c 0.281,0.394 0.654,0.615 1.118,0.656 v 0 c 0.477,0.043 0.887,-0.112 1.227,-0.457 v 0 c 0.338,-0.348 0.545,-0.945 0.621,-1.797 v 0 c 0.067,-0.762 -0.041,-1.348 -0.322,-1.758 v 0 c -0.284,-0.41 -0.649,-0.635 -1.1,-0.675 v 0 c -0.053,-0.005 -0.105,-0.007 -0.156,-0.007 v 0 c -0.496,0 -0.909,0.218 -1.234,0.657 m -8.274,6.093 1.965,-0.036 0.036,1.818 -1.966,0.037 z m -19.803,-5.761 1.916,-0.441 0.516,2.236 c 0.283,1.231 0.524,2.027 0.719,2.389 v 0 c 0.195,0.361 0.404,0.593 0.625,0.696 v 0 c 0.218,0.108 0.462,0.127 0.732,0.067 v 0 c 0.276,-0.064 0.553,-0.238 0.826,-0.521 v 0 l 0.979,1.533 c -0.349,0.334 -0.743,0.55 -1.177,0.652 v 0 c -0.309,0.07 -0.604,0.057 -0.882,-0.04 v 0 c -0.279,-0.1 -0.627,-0.359 -1.043,-0.773 v 0 l 0.237,1.028 -1.777,0.412 z m 39.048,6.723 c -0.962,-0.207 -1.682,-0.721 -2.165,-1.537 v 0 c -0.481,-0.817 -0.589,-1.828 -0.33,-3.032 v 0 c 0.218,-1.006 0.639,-1.789 1.26,-2.345 v 0 c 0.786,-0.694 1.809,-0.903 3.071,-0.629 v 0 c 0.796,0.174 1.421,0.499 1.872,0.982 v 0 c 0.451,0.482 0.725,1.099 0.819,1.854 v 0 l -1.985,-0.094 c -0.025,-0.385 -0.123,-0.684 -0.291,-0.893 v 0 c -0.17,-0.207 -0.406,-0.345 -0.707,-0.41 v 0 c -0.441,-0.095 -0.845,-0.017 -1.209,0.235 v 0 c -0.365,0.252 -0.615,0.661 -0.752,1.23 v 0 l 4.81,1.041 c -0.292,1.478 -0.828,2.506 -1.607,3.084 v 0 c -0.552,0.41 -1.183,0.616 -1.889,0.616 v 0 c -0.286,0 -0.586,-0.034 -0.897,-0.102 m -0.504,-2.125 c 0.207,0.362 0.519,0.589 0.939,0.681 v 0 c 0.391,0.086 0.755,0.014 1.092,-0.217 v 0 c 0.336,-0.232 0.57,-0.621 0.705,-1.173 v 0 l -2.871,-0.623 c -0.117,0.521 -0.072,0.966 0.135,1.332 m -28.075,0.586 c -0.623,-0.252 -1.129,-0.663 -1.519,-1.233 v 0 c -0.391,-0.57 -0.621,-1.177 -0.698,-1.826 v 0 c -0.097,-0.848 -0.021,-1.584 0.231,-2.213 v 0 c 0.25,-0.627 0.666,-1.129 1.244,-1.506 v 0 c 0.578,-0.376 1.206,-0.603 1.88,-0.681 v 0 c 1.095,-0.127 2.042,0.135 2.848,0.784 v 0 c 0.806,0.653 1.272,1.534 1.4,2.653 v 0 c 0.127,1.106 -0.122,2.061 -0.751,2.869 v 0 c -0.629,0.807 -1.502,1.273 -2.617,1.405 v 0 c -0.181,0.021 -0.358,0.031 -0.533,0.031 v 0 c -0.523,0 -1.019,-0.094 -1.485,-0.283 m 1.317,-5.87 c -0.511,0.061 -0.916,0.305 -1.219,0.732 v 0 c -0.303,0.431 -0.41,1.012 -0.325,1.743 v 0 c 0.085,0.733 0.323,1.272 0.716,1.619 v 0 c 0.39,0.35 0.841,0.494 1.351,0.436 v 0 c 0.51,-0.059 0.914,-0.303 1.213,-0.731 v 0 c 0.3,-0.429 0.41,-1.005 0.327,-1.726 v 0 c -0.087,-0.743 -0.325,-1.287 -0.716,-1.637 v 0 c -0.334,-0.301 -0.713,-0.448 -1.136,-0.448 v 0 c -0.069,0 -0.14,0.004 -0.211,0.012 m 7.855,-1.984 1.965,-0.037 0.143,7.425 -1.965,0.035 z" /></g></g></g></g><g
       id="g108"><g
         clip-path="url(#clipPath114)"
         id="g110"><g
           transform="translate(190.7949,133.3447)"
           id="g116"><path
             id="path118"
             style="fill:#e90e47;fill-opacity:1;fill-rule:nonzero;stroke:none"
             d="M 0,0 -67.258,0.551 0,1.1 C 0.305,1.102 0.553,0.859 0.555,0.555 0.557,0.25 0.313,0.002 0.01,0 Z" /></g><g
           transform="translate(300.8398,133.3447)"
           id="g120"><path
             id="path122"
             style="fill:#e90e47;fill-opacity:1;fill-rule:nonzero;stroke:none"
             d="M 0,0 67.26,0.551 0,1.1 C -0.303,1.102 -0.551,0.859 -0.553,0.555 -0.557,0.25 -0.313,0.002 -0.008,0 Z" /></g></g></g><g
       id="g124"><g
         id="g126"><g
           id="g132"><g
             id="g134"><path
               id="path148"
               style="fill:url(#linearGradient146);stroke:none"
               d="m 194.381,138.027 c -0.809,-0.903 -1.213,-1.966 -1.213,-3.192 v 0 c 0,-1.104 0.32,-2.069 0.963,-2.899 v 0 c 0.652,-0.853 1.514,-1.384 2.582,-1.595 v 0 c 0.025,-0.971 0.144,-1.483 0.359,-1.533 v 0 c 0.075,-0.018 0.366,-0.023 0.873,-0.023 v 0 h 0.564 c 0.284,0.018 0.429,0.083 0.429,0.198 v 0 c 0,0.032 -0.015,0.057 -0.038,0.082 v 0 c -0.394,0.377 -0.67,0.8 -0.824,1.264 v 0 c 1.076,0.137 1.965,0.654 2.664,1.551 v 0 c 0.668,0.854 1,1.839 1,2.955 v 0 c 0,1.226 -0.402,2.289 -1.207,3.192 v 0 c -0.834,0.931 -1.861,1.402 -3.08,1.402 v 0 c -1.214,0 -2.239,-0.471 -3.072,-1.402 m 1.057,-5.348 c -0.506,0.611 -0.763,1.324 -0.763,2.135 v 0 c 0,0.82 0.257,1.529 0.763,2.136 v 0 c 0.539,0.646 1.207,0.967 2.003,0.967 v 0 c 0.809,0 1.482,-0.314 2.024,-0.947 v 0 c 0.516,-0.604 0.771,-1.313 0.771,-2.135 v 0 c 0,-0.83 -0.253,-1.553 -0.764,-2.164 v 0 c -0.54,-0.645 -1.218,-0.967 -2.031,-0.967 v 0 c -0.8,0 -1.469,0.326 -2.003,0.975" /></g></g></g></g><g
       id="g150"><g
         id="g152"><g
           id="g158"><g
             id="g160"><path
               id="path174"
               style="fill:url(#linearGradient172);stroke:none"
               d="m 229.891,136.171 c 0,-0.162 -0.002,-0.404 -0.004,-0.725 v 0 c -0.006,-0.32 -0.008,-0.56 -0.008,-0.719 v 0 c 0,-0.65 0.03,-1.062 0.088,-1.23 v 0 c 0.074,-0.219 0.433,-0.736 1.074,-1.554 v 0 c 0.607,-0.768 0.912,-1.214 0.912,-1.327 v 0 c 0,-0.084 -0.076,-0.246 -0.23,-0.488 v 0 c -0.155,-0.246 -0.266,-0.387 -0.342,-0.434 v 0 c -0.223,-0.135 -0.569,-0.203 -1.038,-0.203 v 0 c -0.222,0 -0.334,-0.047 -0.334,-0.139 v 0 c 0,-0.053 0.057,-0.22 0.169,-0.5 v 0 c 0.109,-0.283 0.181,-0.433 0.213,-0.454 v 0 c 0.031,-0.024 0.101,-0.035 0.211,-0.035 v 0 c 0.914,0 1.453,0.075 1.621,0.226 v 0 c 0.185,0.169 0.765,0.982 1.75,2.439 v 0 c 0.982,1.456 1.501,2.277 1.554,2.469 v 0 c 0.043,0.145 0.062,0.574 0.062,1.28 v 0 c 0,1.019 -0.062,1.529 -0.187,1.529 v 0 c -0.135,0 -0.336,-0.012 -0.606,-0.03 v 0 c -0.27,-0.02 -0.474,-0.027 -0.607,-0.027 v 0 c -0.066,0 -0.099,-0.055 -0.099,-0.16 v 0 c 0,-0.115 0.012,-0.293 0.037,-0.529 v 0 c 0.025,-0.237 0.037,-0.416 0.037,-0.539 v 0 c 0,-0.551 -0.017,-0.932 -0.051,-1.143 v 0 c -0.023,-0.147 -0.228,-0.531 -0.609,-1.152 v 0 c -0.381,-0.621 -0.607,-0.934 -0.678,-0.934 v 0 c -0.099,0 -0.367,0.316 -0.799,0.949 v 0 c -0.429,0.633 -0.66,1.028 -0.683,1.186 v 0 c -0.035,0.254 -0.051,0.633 -0.051,1.144 v 0 c 0,0.117 0.006,0.295 0.018,0.529 v 0 c 0.013,0.235 0.019,0.411 0.019,0.528 v 0 c 0,0.088 -0.033,0.131 -0.101,0.131 v 0 c -0.133,0 -0.33,0.01 -0.592,0.025 v 0 c -0.262,0.017 -0.461,0.025 -0.596,0.025 v 0 c -0.1,0 -0.15,-0.046 -0.15,-0.138" /></g></g></g></g><g
       id="g176"><g
         id="g178"><g
           id="g184"><g
             id="g186"><path
               id="path200"
               style="fill:url(#linearGradient198);stroke:none"
               d="m 295.981,136.513 c -10e-4,0 -10e-4,0 -0.003,0 v 0 c 10e-4,0 0.002,0 0.003,0 m -0.632,-0.127 c -0.279,-0.035 -0.497,-0.057 -0.652,-0.077 v 0 c -0.054,-0.019 -0.082,-0.054 -0.082,-0.105 v 0 c 0,-0.018 0.002,-0.041 0.012,-0.076 v 0 c 0.193,-0.629 0.289,-1.459 0.289,-2.494 v 0 c 0,-0.344 -0.004,-0.86 -0.016,-1.539 v 0 c -0.01,-0.684 -0.015,-1.194 -0.015,-1.536 v 0 c 0,-0.105 0.049,-0.155 0.144,-0.155 v 0 c 0.131,0 0.327,0 0.592,-0.007 v 0 c 0.264,-0.003 0.459,-0.005 0.59,-0.005 v 0 c 0.096,0 0.145,0.056 0.145,0.167 v 0 c 0,0.237 -0.01,0.593 -0.028,1.069 v 0 c -0.021,0.478 -0.027,0.836 -0.027,1.07 v 0 0.69 c 0,0.57 0.043,0.945 0.128,1.125 v 0 c 0.149,0.299 0.485,0.447 1.015,0.447 v 0 c 0.091,0 0.226,-0.012 0.404,-0.031 v 0 c 0.177,-0.018 0.31,-0.025 0.4,-0.025 v 0 c 0.07,0 0.114,0.048 0.125,0.144 v 0 c 0.062,0.377 0.094,0.797 0.094,1.258 v 0 c 0,0.087 -0.162,0.129 -0.49,0.129 v 0 c -0.256,0 -0.465,-0.024 -0.63,-0.075 v 0 c -0.197,-0.054 -0.388,-0.139 -0.576,-0.251 v 0 c -0.173,-0.106 -0.343,-0.22 -0.517,-0.325 v 0 c -0.012,-0.01 -0.024,-0.012 -0.032,-0.012 v 0 c -0.052,0 -0.091,0.122 -0.11,0.367 v 0 c -0.023,0.246 -0.066,0.371 -0.131,0.374 v 0 c 0.016,-0.003 -0.193,-0.046 -0.632,-0.127" /></g></g></g></g><g
       id="g202"><g
         id="g204"><g
           id="g210"><g
             id="g212"><path
               id="path226"
               style="fill:url(#linearGradient224);stroke:none"
               d="m 263.943,136.153 c -0.357,-0.256 -0.643,-0.471 -0.861,-0.64 v 0 c -0.076,0.261 -0.123,0.525 -0.144,0.783 v 0 c -0.008,0.068 -0.025,0.102 -0.052,0.102 v 0 c -0.019,0 -0.255,-0.035 -0.704,-0.108 v 0 c -0.451,-0.074 -0.692,-0.113 -0.721,-0.119 v 0 c -0.055,-0.015 -0.08,-0.045 -0.08,-0.088 v 0 c 0,-0.017 0.006,-0.043 0.018,-0.08 v 0 c 0.187,-0.754 0.281,-1.578 0.281,-2.471 v 0 c 0,-0.334 -0.004,-0.834 -0.016,-1.494 v 0 c -0.01,-0.664 -0.013,-1.16 -0.013,-1.49 v 0 c 0,-0.096 0.042,-0.144 0.13,-0.144 v 0 c 0.135,0 0.336,0 0.604,-0.007 v 0 c 0.267,-0.003 0.468,-0.005 0.603,-0.005 v 0 c 0.08,0 0.12,0.052 0.12,0.156 v 0 3.772 c 0,0.19 0.197,0.409 0.591,0.657 v 0 c 0.371,0.235 0.664,0.352 0.873,0.352 v 0 c 0.454,0 0.764,-0.117 0.928,-0.352 v 0 c 0.139,-0.197 0.209,-0.532 0.209,-1.011 v 0 c 0,-0.167 0.002,-0.419 0.006,-0.75 v 0 c 0.005,-0.335 0.005,-0.582 0.005,-0.752 v 0 c 0,-0.209 -0.005,-0.521 -0.017,-0.942 v 0 c -0.011,-0.417 -0.019,-0.732 -0.019,-0.935 v 0 c 0,-0.123 0.036,-0.183 0.113,-0.183 v 0 c 0.139,0 0.346,0 0.619,-0.007 v 0 c 0.274,-0.003 0.481,-0.005 0.619,-0.005 v 0 c 0.084,0 0.125,0.044 0.125,0.136 v 0 c 0,0.282 -0.002,0.699 -0.011,1.258 v 0 c -0.008,0.557 -0.015,0.977 -0.015,1.258 v 0 c 0,0.133 0.005,0.334 0.01,0.603 v 0 c 0.007,0.266 0.01,0.463 0.01,0.596 v 0 c 0,0.748 -0.107,1.293 -0.32,1.627 v 0 c -0.289,0.459 -0.828,0.686 -1.616,0.686 v 0 c -0.409,0 -0.835,-0.137 -1.275,-0.403" /></g></g></g></g><g
       id="g228"><g
         id="g230"><g
           id="g236"><g
             id="g238"><path
               id="path252"
               style="fill:url(#linearGradient250);stroke:none"
               d="m 274.143,139.261 c -0.307,-0.027 -0.538,-0.039 -0.692,-0.039 v 0 c -0.066,0 -0.099,-0.051 -0.099,-0.155 v 0 c 0,-0.142 0.003,-0.351 0.017,-0.634 v 0 c 0.012,-0.279 0.019,-0.486 0.019,-0.625 v 0 -2.036 c 0,-0.048 -0.017,-0.078 -0.05,-0.09 v 0 c -0.176,0.159 -0.354,0.315 -0.534,0.471 v 0 c -0.394,0.311 -0.855,0.463 -1.382,0.463 v 0 c -0.875,0 -1.586,-0.315 -2.131,-0.953 v 0 c -0.52,-0.605 -0.78,-1.357 -0.78,-2.25 v 0 c 0,-0.857 0.259,-1.59 0.774,-2.199 v 0 c 0.543,-0.647 1.241,-0.967 2.086,-0.967 v 0 c 0.746,0 1.406,0.309 1.981,0.93 v 0 c 0.036,0.041 0.068,0.07 0.093,0.082 v 0 c 0.02,-0.004 0.037,-0.152 0.047,-0.441 v 0 c 0.01,-0.294 0.045,-0.438 0.103,-0.438 v 0 c 0.063,0 0.155,0.006 0.278,0.017 v 0 c 0.121,0.012 0.213,0.02 0.275,0.02 v 0 c -0.012,0 0.068,-0.008 0.247,-0.02 v 0 c 0.144,-0.005 0.259,-0.005 0.337,0 v 0 c 0.117,0.012 0.174,0.039 0.172,0.08 v 0 l -0.007,0.082 c -0.073,0.852 -0.108,2.106 -0.108,3.761 v 0 c 0,0.532 0.023,1.341 0.072,2.422 v 0 c 0.048,1.078 0.073,1.888 0.073,2.429 v 0 c 0,0.088 -0.035,0.131 -0.106,0.131 v 0 c -0.151,0 -0.381,-0.014 -0.685,-0.041 m -3.733,-7.149 c -0.332,0.373 -0.496,0.811 -0.496,1.315 v 0 c 0,0.527 0.158,0.98 0.477,1.357 v 0 c 0.333,0.4 0.761,0.602 1.275,0.602 v 0 c 0.49,0 0.901,-0.203 1.232,-0.609 v 0 c 0.311,-0.382 0.465,-0.823 0.465,-1.325 v 0 c 0,-0.516 -0.15,-0.961 -0.453,-1.334 v 0 c -0.326,-0.397 -0.742,-0.596 -1.244,-0.596 v 0 c -0.498,0 -0.916,0.196 -1.256,0.59" /></g></g></g></g><g
       id="g254"><g
         id="g256"><g
           id="g262"><g
             id="g264"><path
               id="path278"
               style="fill:url(#linearGradient276);stroke:none"
               d="m 288.219,135.688 c -0.576,-0.617 -0.863,-1.361 -0.863,-2.236 v 0 c 0,-0.875 0.287,-1.621 0.863,-2.238 v 0 c 0.586,-0.635 1.316,-0.955 2.185,-0.955 v 0 c 0.866,0 1.594,0.32 2.18,0.961 v 0 c 0.574,0.621 0.864,1.367 0.864,2.244 v 0 c 0,0.871 -0.292,1.612 -0.87,2.224 v 0 c -0.586,0.63 -1.31,0.944 -2.174,0.944 v 0 c -0.867,0 -1.596,-0.314 -2.185,-0.944 m 0.941,-3.543 c -0.319,0.369 -0.476,0.803 -0.476,1.307 v 0 c 0,0.51 0.156,0.948 0.471,1.312 v 0 c 0.329,0.377 0.748,0.565 1.249,0.565 v 0 c 0.504,0 0.918,-0.19 1.246,-0.572 v 0 c 0.313,-0.359 0.471,-0.795 0.471,-1.305 v 0 c 0,-0.504 -0.158,-0.938 -0.471,-1.307 v 0 c -0.334,-0.392 -0.748,-0.586 -1.246,-0.586 v 0 c -0.494,0 -0.91,0.194 -1.244,0.586" /></g></g></g></g><g
       id="g280"><g
         id="g282"><g
           id="g288"><g
             id="g290"><path
               id="path304"
               style="fill:url(#linearGradient302);stroke:none"
               d="m 222.156,138.491 c -0.179,-0.15 -0.269,-0.344 -0.269,-0.574 v 0 c 0,-0.514 0.291,-0.77 0.873,-0.77 v 0 c 0.574,0 0.861,0.256 0.861,0.77 v 0 c 0,0.23 -0.086,0.42 -0.255,0.569 v 0 c -0.171,0.146 -0.372,0.22 -0.606,0.22 v 0 c -0.235,0 -0.436,-0.074 -0.604,-0.215" /></g></g></g></g><g
       id="g306"><g
         id="g308"><g
           id="g314"><g
             id="g316"><path
               id="path330"
               style="fill:url(#linearGradient328);stroke:none"
               d="m 286.031,139.282 c -1.172,-0.076 -2.139,-0.115 -2.896,-0.127 v 0 c -0.563,-0.008 -1.172,-0.006 -1.83,0.008 v 0 c -0.499,0.014 -0.764,0.017 -0.798,0.017 v 0 c -0.108,-0.009 -0.162,-0.06 -0.155,-0.148 v 0 -0.082 c 0.087,-2.377 0.13,-3.779 0.13,-4.211 v 0 c 0,-0.466 -0.02,-1.164 -0.06,-2.1 v 0 c -0.04,-0.931 -0.059,-1.632 -0.059,-2.097 v 0 c 0,-0.091 0.053,-0.138 0.156,-0.138 v 0 c 0.07,0 0.18,0.005 0.329,0.017 v 0 c 0.145,0.015 0.255,0.02 0.325,0.02 v 0 c 0.089,0 0.216,-0.009 0.382,-0.026 v 0 c 0.166,-0.021 0.289,-0.029 0.373,-0.029 v 0 c 0.1,0 0.15,0.062 0.15,0.19 v 0 c 0,0.374 -0.01,0.938 -0.032,1.694 v 0 c -0.02,0.756 -0.03,1.319 -0.03,1.696 v 0 c 0,0.135 0.093,0.21 0.282,0.234 v 0 c 0.071,0.008 0.378,0.012 0.918,0.012 v 0 c 0.294,0 0.733,-0.008 1.321,-0.024 v 0 c 0.588,-0.019 1.029,-0.025 1.318,-0.025 v 0 c 0.088,0 0.133,0.025 0.133,0.075 v 0 c 0,0.073 -0.006,0.189 -0.013,0.343 v 0 c -0.01,0.151 -0.012,0.263 -0.012,0.342 v 0 c 0,0.068 0.006,0.176 0.014,0.316 v 0 c 0.011,0.139 0.017,0.246 0.017,0.316 v 0 c 0,0.069 -0.047,0.102 -0.132,0.102 v 0 c -0.407,0 -1.02,-0.019 -1.838,-0.057 v 0 c -0.821,-0.035 -1.432,-0.056 -1.839,-0.056 v 0 c -0.121,0 -0.184,0.143 -0.184,0.425 v 0 1.516 c 0,0.231 0.044,0.363 0.13,0.397 v 0 c 0.014,0.008 0.17,0.013 0.463,0.018 v 0 l 0.461,0.007 c 0.375,0.006 0.912,-0.004 1.607,-0.039 v 0 c 0.744,-0.039 1.281,-0.056 1.607,-0.056 v 0 c 0.088,0 0.133,0.04 0.133,0.118 v 0 c 0,0.097 -0.027,0.307 -0.074,0.629 v 0 c -0.024,0.231 -0.031,0.403 -0.027,0.516 v 0 c -0.02,0.14 -0.099,0.208 -0.237,0.208 v 0 c -0.01,0 -0.022,0 -0.033,-10e-4" /></g></g></g></g><g
       id="g332"><g
         id="g334"><g
           id="g340"><g
             id="g342"><path
               id="path356"
               style="fill:url(#linearGradient354);stroke:none"
               d="m 219.748,139.2 c -0.154,-0.011 -0.271,-0.02 -0.351,-0.02 v 0 c -0.075,0 -0.188,0.009 -0.341,0.02 v 0 c -0.15,0.012 -0.263,0.022 -0.337,0.022 v 0 c -0.088,0 -0.133,-0.043 -0.133,-0.129 v 0 c 0,-0.445 0.021,-1.125 0.066,-2.031 v 0 c 0.043,-0.906 0.067,-1.587 0.067,-2.041 v 0 c 0,-0.499 -0.006,-1.242 -0.014,-2.237 v 0 c -0.008,-0.996 -0.011,-1.742 -0.011,-2.236 v 0 c 0,-0.096 0.037,-0.144 0.11,-0.144 v 0 h 1.202 c 0.068,0 0.102,0.048 0.102,0.144 v 0 c 0,0.494 -0.01,1.24 -0.026,2.236 v 0 c -0.018,0.995 -0.026,1.738 -0.026,2.237 v 0 c 0,1.118 0.047,2.458 0.139,4.017 v 0 l 0.006,0.082 c 0.002,0.067 -0.031,0.102 -0.107,0.102 v 0 c -0.076,0 -0.19,-0.01 -0.346,-0.022" /></g></g></g></g><g
       id="g358"><g
         id="g360"><g
           id="g366"><g
             id="g368"><path
               id="path382"
               style="fill:url(#linearGradient380);stroke:none"
               d="m 225.563,138.038 c 0,-0.171 0.003,-0.43 0.013,-0.772 v 0 c 0.012,-0.344 0.018,-0.601 0.018,-0.767 v 0 c 0,-0.164 -0.098,-0.25 -0.289,-0.256 v 0 c -0.102,-0.007 -0.203,-0.007 -0.309,-0.007 v 0 c -0.121,-0.024 -0.188,-0.083 -0.201,-0.184 v 0 c -0.017,-0.133 -0.025,-0.262 -0.025,-0.381 v 0 c 0,-0.325 0.043,-0.495 0.132,-0.518 v 0 c 0.151,-0.004 0.303,-0.004 0.459,-0.004 v 0 c 0.172,-0.013 0.256,-0.107 0.256,-0.277 v 0 c 0,-0.357 -0.008,-0.891 -0.023,-1.605 v 0 c -0.018,-0.713 -0.028,-1.251 -0.028,-1.606 v 0 c 0,-0.888 0.492,-1.332 1.471,-1.332 v 0 c 0.739,0 1.279,0.08 1.623,0.247 v 0 c 0.062,0.025 0.102,0.058 0.119,0.085 v 0 c 0.008,0.018 0.016,0.065 0.018,0.137 v 0 c 0.006,0.06 0.017,0.187 0.039,0.382 v 0 c 0.018,0.162 0.025,0.287 0.025,0.379 v 0 c 0,0.075 -0.025,0.114 -0.076,0.114 v 0 c -0.121,0 -0.308,-0.027 -0.558,-0.084 v 0 c -0.252,-0.057 -0.444,-0.086 -0.573,-0.086 v 0 c -0.314,0 -0.521,0.109 -0.623,0.328 v 0 c -0.066,0.14 -0.1,0.392 -0.1,0.752 v 0 0.937 c 0,0.536 0.01,0.953 0.032,1.252 v 0 c 0.015,0.237 0.043,0.358 0.074,0.358 v 0 c 0.168,0 0.422,-0.012 0.762,-0.036 v 0 c 0.338,-0.023 0.594,-0.033 0.761,-0.033 v 0 c 0.116,0 0.174,0.038 0.174,0.118 v 0 c 0,0.06 -0.002,0.158 -0.005,0.289 v 0 c -0.005,0.13 -0.007,0.226 -0.007,0.289 v 0 c 0,0.055 0.007,0.137 0.022,0.248 v 0 c 0.016,0.111 0.022,0.193 0.022,0.244 v 0 c 0,0.047 -0.036,0.076 -0.106,0.076 v 0 h -1.51 c -0.113,0 -0.167,0.059 -0.167,0.178 v 0 c 0,0.185 0.013,0.461 0.038,0.83 v 0 c 0.027,0.371 0.042,0.647 0.042,0.832 v 0 c 0,0.08 -0.047,0.125 -0.145,0.137 v 0 c -0.75,0.131 -1.145,0.197 -1.18,0.197 v 0 c -0.117,0 -0.175,-0.155 -0.175,-0.461" /></g></g></g></g><g
       id="g384"><g
         id="g386"><g
           id="g392"><g
             id="g394"><path
               id="path408"
               style="fill:url(#linearGradient406);stroke:none"
               d="m 254.38,135.694 c -0.532,-0.607 -0.8,-1.374 -0.8,-2.306 v 0 c 0,-0.823 0.266,-1.547 0.793,-2.168 v 0 c 0.557,-0.649 1.242,-0.973 2.055,-0.973 v 0 c 0.332,0 0.664,0.084 0.994,0.252 v 0 c 0.213,0.102 0.443,0.256 0.689,0.459 v 0 c 0.202,0.162 0.317,0.242 0.34,0.242 v 0 c 0.037,0 0.078,-0.147 0.119,-0.437 v 0 c 0.043,-0.294 0.103,-0.442 0.184,-0.442 v 0 c 0.113,0 0.285,0.016 0.517,0.041 v 0 c 0.233,0.03 0.407,0.042 0.522,0.042 v 0 c 0.115,0 0.17,0.06 0.166,0.183 v 0 l -0.006,0.086 c -0.105,1.841 -0.156,2.781 -0.156,2.824 v 0 c 0,0.693 0.082,1.522 0.244,2.482 v 0 c 0.014,0.057 0.018,0.097 0.018,0.11 v 0 c 0,0.06 -0.171,0.127 -0.514,0.203 v 0 c -0.309,0.062 -0.521,0.094 -0.635,0.094 v 0 c -0.07,0 -0.129,-0.131 -0.175,-0.395 v 0 c -0.045,-0.267 -0.08,-0.396 -0.108,-0.396 v 0 c -0.012,0 -0.024,0.005 -0.037,0.02 v 0 c -0.151,0.157 -0.262,0.279 -0.334,0.364 v 0 c -0.479,0.44 -1.037,0.664 -1.676,0.664 v 0 c -0.91,0 -1.642,-0.314 -2.2,-0.949 m 1.125,-3.549 c -0.323,0.374 -0.484,0.811 -0.484,1.319 v 0 c 0,0.51 0.161,0.955 0.484,1.332 v 0 c 0.334,0.392 0.753,0.59 1.257,0.59 v 0 c 0.502,0 0.913,-0.198 1.238,-0.596 v 0 c 0.305,-0.369 0.457,-0.811 0.457,-1.326 v 0 c 0,-0.498 -0.154,-0.934 -0.465,-1.307 v 0 c -0.33,-0.401 -0.741,-0.598 -1.23,-0.598 v 0 c -0.504,0 -0.923,0.194 -1.257,0.586" /></g></g></g></g><g
       id="g410"><g
         id="g412"><g
           id="g418"><g
             id="g420"><path
               id="path434"
               style="fill:url(#linearGradient432);stroke:none"
               d="m 203.492,136.089 c -0.154,-0.674 -0.232,-1.496 -0.232,-2.469 v 0 c 0,-1.076 0.091,-1.82 0.277,-2.234 v 0 c 0.297,-0.672 0.908,-1.006 1.834,-1.006 v 0 c 0.684,0 1.375,0.303 2.074,0.91 v 0 c 0.041,0.037 0.074,0.057 0.096,0.057 v 0 c 0.037,0 0.06,-0.159 0.07,-0.473 v 0 c 0.01,-0.315 0.041,-0.47 0.092,-0.47 v 0 c 0.819,0 1.242,0.003 1.275,0.013 v 0 c 0.079,0.024 0.12,0.078 0.12,0.162 v 0 c 0,0.307 -0.01,0.763 -0.03,1.373 v 0 c -0.017,0.61 -0.027,1.069 -0.027,1.373 v 0 c 0,0.311 0.014,0.776 0.039,1.392 v 0 c 0.025,0.618 0.035,1.08 0.035,1.385 v 0 c 0,0.147 -0.058,0.223 -0.182,0.223 v 0 h -1.035 c -0.172,0 -0.257,-0.104 -0.257,-0.311 v 0 c 0,-1.896 -0.012,-3.003 -0.032,-3.316 v 0 c -0.013,-0.254 -0.21,-0.513 -0.589,-0.787 v 0 c -0.362,-0.26 -0.674,-0.389 -0.938,-0.389 v 0 c -0.619,0 -1.021,0.225 -1.199,0.678 v 0 c -0.106,0.252 -0.158,0.744 -0.158,1.479 v 0 c 0,0.3 0.007,0.578 0.019,0.83 v 0 c 0.002,0.163 0.036,0.451 0.094,0.859 v 0 c 0.054,0.381 0.082,0.653 0.082,0.818 v 0 c 0,0.092 -0.043,0.139 -0.125,0.139 v 0 c -0.123,0 -0.305,0 -0.549,0.004 v 0 c -0.24,0.004 -0.424,0.006 -0.547,0.006 v 0 c -0.099,0 -0.168,-0.08 -0.207,-0.246" /></g></g></g></g><g
       id="g436"><g
         id="g438"><g
           id="g444"><g
             id="g446"><path
               id="path460"
               style="fill:url(#linearGradient458);stroke:none"
               d="m 240.736,139.081 c 0,-0.488 0.024,-1.216 0.067,-2.189 v 0 c 0.042,-0.975 0.066,-1.704 0.066,-2.192 v 0 c 0,-0.46 -0.024,-1.153 -0.066,-2.074 v 0 c -0.043,-0.925 -0.067,-1.618 -0.067,-2.078 v 0 c 0,-0.096 0.053,-0.144 0.159,-0.144 v 0 c 0.197,0 0.491,0.011 0.888,0.025 v 0 c 0.397,0.017 0.693,0.025 0.891,0.025 v 0 c 0.266,0 0.67,-0.006 1.209,-0.018 v 0 c 0.539,-0.015 0.941,-0.019 1.209,-0.019 v 0 c 0.717,0 1.306,0.274 1.772,0.822 v 0 c 0.439,0.524 0.659,1.151 0.659,1.879 v 0 c 0,0.369 -0.095,0.725 -0.289,1.065 v 0 c -0.193,0.342 -0.447,0.601 -0.765,0.777 v 0 c -0.124,0.066 -0.184,0.111 -0.184,0.139 v 0 c 0,0.023 0.06,0.077 0.184,0.156 v 0 c 0.238,0.158 0.441,0.395 0.609,0.707 v 0 c 0.166,0.312 0.25,0.611 0.25,0.9 v 0 c 0,0.838 -0.319,1.455 -0.955,1.856 v 0 c -0.524,0.324 -1.225,0.488 -2.106,0.488 v 0 c -0.374,0 -0.939,0.004 -1.689,0.006 v 0 c -0.75,0.004 -1.312,0.01 -1.683,0.01 v 0 c -0.106,0 -0.159,-0.047 -0.159,-0.141 m 1.586,-3.285 c 0,0.099 -0.003,0.252 -0.008,0.453 v 0 c -0.003,0.199 -0.007,0.348 -0.007,0.446 v 0 c 0,0.14 0.007,0.351 0.019,0.628 v 0 c 0.013,0.278 0.02,0.485 0.02,0.624 v 0 c 0,0.103 0.352,0.155 1.054,0.155 v 0 c 0.727,0 1.246,-0.06 1.566,-0.185 v 0 c 0.528,-0.201 0.792,-0.601 0.792,-1.194 v 0 c 0,-0.742 -0.674,-1.108 -2.016,-1.108 v 0 c -0.949,0 -1.42,0.058 -1.42,0.181 m 0.414,-4.084 c -0.269,0.017 -0.402,0.051 -0.402,0.089 v 0 c 0,0.159 -0.004,0.389 -0.012,0.702 v 0 c -0.01,0.311 -0.015,0.541 -0.015,0.692 v 0 1.028 c 0,0.116 0.529,0.172 1.586,0.172 v 0 c 0.611,0 1.06,-0.06 1.349,-0.177 v 0 c 0.457,-0.18 0.686,-0.524 0.686,-1.035 v 0 c 0,-0.606 -0.189,-1.02 -0.571,-1.247 v 0 c -0.291,-0.172 -0.768,-0.257 -1.427,-0.257 v 0 c -0.53,0 -0.926,0.01 -1.194,0.033" /></g></g></g></g><g
       id="g462"><g
         id="g464"><g
           id="g470"><g
             id="g472"><path
               id="path486"
               style="fill:url(#linearGradient484);stroke:none"
               d="m 223.115,136.306 c -0.158,-0.023 -0.277,-0.033 -0.355,-0.033 v 0 c -0.08,0 -0.2,0.01 -0.356,0.033 v 0 c -0.156,0.019 -0.273,0.029 -0.35,0.029 v 0 c -0.087,0 -0.13,-0.034 -0.13,-0.107 v 0 c 0,-0.326 0.023,-0.817 0.072,-1.471 v 0 c 0.047,-0.653 0.073,-1.143 0.073,-1.467 v 0 c 0,-0.297 -0.008,-0.733 -0.022,-1.314 v 0 c -0.016,-0.579 -0.023,-1.014 -0.023,-1.303 v 0 c 0,-0.172 0.045,-0.256 0.132,-0.256 v 0 h 1.225 c 0.076,0 0.113,0.043 0.113,0.131 v 0 c 0,0.305 -0.006,0.756 -0.019,1.367 v 0 c -0.012,0.612 -0.018,1.066 -0.018,1.375 v 0 c 0,0.324 0.019,0.814 0.059,1.465 v 0 c 0.04,0.652 0.06,1.139 0.06,1.461 v 0 c 0,0.08 -0.035,0.119 -0.107,0.119 v 0 c -0.078,0 -0.198,-0.01 -0.354,-0.029" /></g></g></g></g><g
       id="g488"><g
         id="g490"><g
           id="g496"><g
             id="g498"><path
               id="path512"
               style="fill:url(#linearGradient510);stroke:none"
               d="m 211.367,135.694 c -0.533,-0.607 -0.799,-1.374 -0.799,-2.306 v 0 c 0,-0.823 0.264,-1.547 0.792,-2.168 v 0 c 0.558,-0.649 1.242,-0.973 2.056,-0.973 v 0 c 0.33,0 0.66,0.084 0.992,0.252 v 0 c 0.213,0.102 0.444,0.256 0.692,0.459 v 0 c 0.201,0.162 0.314,0.242 0.338,0.242 v 0 c 0.038,0 0.078,-0.147 0.118,-0.437 v 0 c 0.044,-0.294 0.104,-0.442 0.184,-0.442 v 0 c 0.113,0 0.285,0.016 0.517,0.041 v 0 c 0.235,0.03 0.407,0.042 0.522,0.042 v 0 c 0.116,0 0.172,0.06 0.169,0.183 v 0 l -0.007,0.086 c -0.105,1.841 -0.158,2.781 -0.158,2.824 v 0 c 0,0.693 0.082,1.522 0.247,2.482 v 0 c 0.011,0.057 0.017,0.097 0.017,0.11 v 0 c 0,0.06 -0.172,0.127 -0.516,0.203 v 0 c -0.31,0.062 -0.521,0.094 -0.635,0.094 v 0 c -0.07,0 -0.128,-0.131 -0.175,-0.395 v 0 c -0.045,-0.267 -0.08,-0.396 -0.106,-0.396 v 0 c -0.014,0 -0.025,0.005 -0.039,0.02 v 0 c -0.15,0.157 -0.262,0.279 -0.332,0.364 v 0 c -0.476,0.44 -1.037,0.664 -1.678,0.664 v 0 c -0.91,0 -1.642,-0.314 -2.199,-0.949 m 1.125,-3.549 c -0.322,0.374 -0.484,0.811 -0.484,1.319 v 0 c 0,0.51 0.162,0.955 0.484,1.332 v 0 c 0.335,0.392 0.752,0.59 1.256,0.59 v 0 c 0.502,0 0.916,-0.198 1.239,-0.596 v 0 c 0.304,-0.369 0.459,-0.811 0.459,-1.326 v 0 c 0,-0.498 -0.157,-0.934 -0.467,-1.307 v 0 c -0.331,-0.401 -0.74,-0.598 -1.231,-0.598 v 0 c -0.504,0 -0.921,0.194 -1.256,0.586" /></g></g></g></g><g
       id="g514"><g
         id="g516"><g
           id="g522"><g
             id="g524"><path
               id="path538"
               style="fill:url(#linearGradient536);stroke:none"
               d="m 250.235,136.513 c -0.001,0 -0.001,0 -0.003,0 v 0 c 0.001,0 0.002,0 0.003,0 m -0.632,-0.127 c -0.279,-0.035 -0.497,-0.057 -0.654,-0.077 v 0 c -0.052,-0.019 -0.08,-0.054 -0.08,-0.105 v 0 c 0,-0.018 0.002,-0.041 0.012,-0.076 v 0 c 0.193,-0.629 0.288,-1.459 0.288,-2.494 v 0 c 0,-0.344 -0.005,-0.86 -0.015,-1.539 v 0 c -0.011,-0.684 -0.015,-1.194 -0.015,-1.536 v 0 c 0,-0.105 0.049,-0.155 0.144,-0.155 v 0 c 0.129,0 0.327,0 0.59,-0.007 v 0 c 0.264,-0.003 0.461,-0.005 0.592,-0.005 v 0 c 0.096,0 0.144,0.056 0.144,0.167 v 0 c 0,0.237 -0.009,0.593 -0.029,1.069 v 0 c -0.017,0.478 -0.027,0.836 -0.027,1.07 v 0 0.69 c 0,0.57 0.043,0.945 0.13,1.125 v 0 c 0.147,0.299 0.485,0.447 1.012,0.447 v 0 c 0.092,0 0.228,-0.012 0.407,-0.031 v 0 c 0.179,-0.018 0.31,-0.025 0.398,-0.025 v 0 c 0.072,0 0.113,0.048 0.127,0.144 v 0 c 0.062,0.377 0.094,0.797 0.094,1.258 v 0 c 0,0.087 -0.162,0.129 -0.492,0.129 v 0 c -0.254,0 -0.463,-0.024 -0.628,-0.075 v 0 c -0.195,-0.054 -0.389,-0.139 -0.578,-0.251 v 0 c -0.171,-0.106 -0.343,-0.22 -0.515,-0.325 v 0 c -0.012,-0.01 -0.022,-0.012 -0.032,-0.012 v 0 c -0.052,0 -0.092,0.122 -0.11,0.367 v 0 c -0.022,0.246 -0.066,0.371 -0.131,0.374 v 0 c 0.016,-0.003 -0.195,-0.046 -0.632,-0.127" /></g></g></g></g></g></svg>